<svg width="495" height="446" viewBox="0 0 495 446" fill="none" xmlns="http://www.w3.org/2000/svg">
<g clip-path="url(#clip0_897_4414)">
<path d="M160.184 348.098C173.017 334.773 233.126 323.661 257.213 332.072C266.004 335.141 273.417 335.823 283.347 335.924C291.776 336.292 303.048 335.141 312.361 333.96C373.159 325.852 443.044 343.943 466.419 359.791C470.68 362.682 473.227 367.353 473.939 372.452C473.969 372.66 474.004 372.861 474.052 373.063C474.473 375.295 475.72 377.319 477.227 379.153C480.231 382.94 487.751 385.777 490.98 390.538C497.034 399.839 494.007 410.463 482.54 412.921C482.54 412.921 474.444 414.179 465.398 414.565C450.434 414.939 418.477 419.776 405.336 424.893C397.026 427.932 392.366 432.959 384.3 435.974C354.248 448.956 315.305 447.751 287.799 441.275C281.709 439.88 275.851 438.093 270.212 435.191C258.816 429.445 249.253 418.423 237.02 413.764C229.512 410.778 220.341 411.003 212.037 411.739C203.116 412.47 193.352 413.253 184.17 413.027C171.034 412.808 153.394 409.923 143.683 403.014C143.297 402.741 142.929 402.444 142.573 402.136C138.513 398.687 136.94 397.168 140.015 389.451C141.226 386.288 142.472 383.213 143.855 379.943C145.654 375.699 147.571 371.063 149.429 366.76C152.248 360.207 155.536 352.787 160.071 348.199L160.16 348.11L160.184 348.098Z" fill="#BDE3F9"/>
<path opacity="0.2" d="M220.726 410.19C300.149 410.19 364.534 400.065 364.534 387.576C364.534 375.086 300.149 364.961 220.726 364.961C141.304 364.961 76.9189 375.086 76.9189 387.576C76.9189 400.065 141.304 410.19 220.726 410.19Z" fill="#493999"/>
<path opacity="0.2" d="M349.41 421.74C377.12 421.74 399.583 418.541 399.583 414.594C399.583 410.647 377.12 407.447 349.41 407.447C321.7 407.447 299.236 410.647 299.236 414.594C299.236 418.541 321.7 421.74 349.41 421.74Z" fill="#493999"/>
<path d="M68.5859 275.969C68.5859 275.969 69.9036 368.41 81.4899 383.266C93.0762 398.123 153.275 406.558 196.165 388.959C202.671 386.288 207.217 382.97 208.381 376.037C209.509 369.312 217.563 297.675 217.183 275.969C217.183 275.969 88.8678 300.049 68.5859 275.969Z" fill="#493999"/>
<mask id="mask0_897_4414" style="mask-type:luminance" maskUnits="userSpaceOnUse" x="68" y="275" width="150" height="124">
<path d="M68.5859 275.969C68.5859 275.969 69.9036 368.41 81.4899 383.266C93.0762 398.123 153.275 406.558 196.165 388.959C202.671 386.288 207.217 382.97 208.381 376.037C209.509 369.312 217.563 297.675 217.183 275.969C217.183 275.969 88.8678 300.049 68.5859 275.969Z" fill="white"/>
</mask>
<g mask="url(#mask0_897_4414)">
<path opacity="0.2" d="M69.2446 283.371C69.2446 283.371 198.925 295.171 220.727 280.195C242.528 265.22 220.727 304.246 220.727 304.246C220.727 304.246 135.877 337.379 68.5857 304.698C20.9527 281.567 69.2446 283.365 69.2446 283.365V283.371Z" fill="#302866"/>
</g>
<path d="M144.181 267.321C193.304 267.321 233.126 257.428 233.126 245.223C233.126 233.019 193.304 223.125 144.181 223.125C95.0583 223.125 55.2363 233.019 55.2363 245.223C55.2363 257.428 95.0583 267.321 144.181 267.321Z" fill="#493999"/>
<path d="M220.727 257.32C220.727 257.32 137.991 223.998 73.4531 257.724C40.3859 275.002 212.631 276.907 220.727 257.32Z" fill="#302866"/>
<path d="M233.387 245.764C230.497 257.321 191.868 266.468 144.627 266.468C97.3853 266.468 55.6818 256.573 55.6818 244.369C55.6818 244.007 55.7174 243.645 55.7887 243.289C55.5572 243.639 55.3732 243.995 55.2426 244.369C50.7197 257.315 60.1869 281.627 60.1869 281.627C93.7705 308.171 206.778 297.166 230.206 281.627C238.266 276.279 234.48 251.866 233.387 245.764Z" fill="#694EC8"/>
<path d="M194.551 74.6934C194.551 74.6934 178.347 70.2952 178.436 42.7778C178.436 42.7778 155.69 43.3595 152.467 12.0196C152.467 12.0196 131.972 15.391 119.181 0V63.2674L189.939 85.5496L194.545 74.6875L194.551 74.6934Z" fill="#207143"/>
<path d="M116.682 254.53C114.022 252.156 102.009 223.386 98.1625 184.715C96.5302 168.309 98.857 135.86 87.7515 135.901C66.0272 139.807 43.8103 139.065 34.1472 132.726C15.8953 120.748 8.35114 102.792 7.73977 94.0909C4.54643 48.6717 5.39522 13.1888 32.3725 11.1529C39.4774 10.6187 45.4723 14.0673 48.268 16.0498C60.9939 25.06 60.3706 47.5499 65.1072 73.9217C66.6742 88.0306 94.6308 89.3364 96.0732 74.171C97.6046 58.0796 102.769 7.92393 119.18 0.00585938C119.269 4.15483 118.433 13.5449 127.312 21.7539C131.835 25.9384 134.631 26.7575 143.593 27.4045C142.246 45.8405 153.126 56.8569 168.826 59.617C168.826 59.617 171.788 85.9828 194.545 74.6993C196.189 79.4774 197.358 128.666 194.099 143.54C192.972 148.698 203.869 148.324 208.962 147.671C220.916 144.888 229.535 138.703 231.001 126.517C236.925 77.1032 235.132 57.2487 260.958 57.1418C288.072 54.1028 293.752 82.3859 293.414 109.696C293.182 128.387 293.426 175.177 271.422 186.348C255.313 196.984 227.232 204.422 194.153 202.961C188.947 202.73 190.829 230.235 174.844 254.542C170.042 261.842 135.296 252.286 116.682 254.542V254.53Z" fill="#6FD59B"/>
<mask id="mask1_897_4414" style="mask-type:luminance" maskUnits="userSpaceOnUse" x="6" y="0" width="288" height="258">
<path d="M116.682 254.53C114.022 252.156 102.009 223.386 98.1625 184.715C96.5302 168.309 98.857 135.86 87.7515 135.901C66.0272 139.807 43.8103 139.065 34.1472 132.726C15.8953 120.748 8.35114 102.792 7.73977 94.0909C4.54643 48.6717 5.39522 13.1888 32.3725 11.1529C39.4774 10.6187 45.4723 14.0673 48.268 16.0498C60.9939 25.06 60.3706 47.5499 65.1072 73.9217C66.6742 88.0306 94.6308 89.3364 96.0732 74.171C97.6046 58.0796 102.769 7.92393 119.18 0.00585938C119.269 4.15483 118.433 13.5449 127.312 21.7539C131.835 25.9384 134.631 26.7575 143.593 27.4045C142.246 45.8405 153.126 56.8569 168.826 59.617C168.826 59.617 171.788 85.9828 194.545 74.6993C196.189 79.4774 197.358 128.666 194.099 143.54C192.972 148.698 203.869 148.324 208.962 147.671C220.916 144.888 229.535 138.703 231.001 126.517C236.925 77.1032 235.132 57.2487 260.958 57.1418C288.072 54.1028 293.752 82.3859 293.414 109.696C293.182 128.387 293.426 175.177 271.422 186.348C255.313 196.984 227.232 204.422 194.153 202.961C188.947 202.73 190.829 230.235 174.844 254.542C170.042 261.842 135.296 252.286 116.682 254.542V254.53Z" fill="white"/>
</mask>
<g mask="url(#mask1_897_4414)">
<path d="M194.551 169.822C194.551 169.822 262.685 183.111 255.83 57.4668" stroke="#207143" stroke-width="0.593559" stroke-miterlimit="10"/>
<path d="M193.156 184.074C193.156 184.074 291.182 213.526 278.759 61.0469" stroke="#207143" stroke-width="0.593559" stroke-miterlimit="10"/>
<path d="M136.204 18.9805C136.204 18.9805 109.185 121.464 139.338 257.318" stroke="#207143" stroke-width="0.593559" stroke-miterlimit="10"/>
<path d="M156.926 30.7812C156.926 30.7812 180.235 121.465 150.088 257.325" stroke="#207143" stroke-width="0.593559" stroke-miterlimit="10"/>
<path d="M197.139 39.2148C197.139 39.2148 202.249 124.028 185.505 258.921" stroke="#207143" stroke-width="0.593559" stroke-miterlimit="10"/>
<path d="M98.2044 22.6211C98.2044 22.6211 88.3335 107.013 97.4684 242.63" stroke="#207143" stroke-width="0.593559" stroke-miterlimit="10"/>
<path d="M94.0083 104.567C94.0083 104.567 29.1146 135.657 39.0211 11.7461" stroke="#207143" stroke-width="0.593559" stroke-miterlimit="10"/>
<path opacity="0.2" d="M292.232 66.7973C291.888 65.8773 292.09 69.9491 292.03 76.3358C291.93 94.4928 290.831 116.87 287.353 136.036C285.436 146.269 282.979 156.253 278.331 164.8C274.948 170.937 270.354 175.14 264.43 178.268C243.471 188.691 217.468 190.317 196.889 194.721C193.333 195.516 189.428 196.419 187.089 198.941C185.267 200.716 184.098 204.455 183.249 207.91C180.4 219.573 176.031 235.279 170.76 246.183C170.458 246.806 170.155 247.411 169.846 248.005C167.347 253.43 161.845 259.466 163.828 262.12C164.451 263.241 167.917 263.485 170.108 263.384C174.5 263.188 180.085 262.695 184.181 261.182C189.867 259.229 192.212 253.157 194.069 247.655C196.479 240.704 199.239 232.323 201.554 225.746C203.774 219.532 205.127 215.674 211.663 213.644C231.927 206.551 265.089 195.309 281.518 189.545C286.825 187.8 288.796 185.693 290.689 179.941C294.559 168.1 299.023 154.05 302.691 141.847C304.744 135.425 303.86 130.67 302.685 124.266C301.854 119.672 301.035 115.048 300.174 110.293C297.746 97.0569 294.695 78.9 292.232 66.8151V66.8033V66.7973Z" fill="#207143"/>
<path opacity="0.2" d="M0.0649845 75.7848C0.142147 74.3424 0.492347 75.7135 0.700092 76.3011C3.52543 85.2045 10.844 106.009 33.2093 119.411C43.8874 125.78 57.6402 129.84 69.4935 129.947C73.4823 130.101 77.3285 129.983 80.4922 129.721C83.1335 129.537 85.1279 129.11 87.3596 130.44C92.5117 133.811 94.4527 141.13 95.9247 148.448C97.9547 160.124 97.1059 175.028 96.4649 187.623C95.4558 205.192 94.5655 218.067 94.4883 234.496C94.3458 239.672 94.8266 253.526 95.4142 255.342C87.2588 233.784 69.078 181.135 61.8722 161.661C60.0916 156.889 57.468 155.868 52.8264 152.532C49.9892 150.591 46.2498 148.039 42.083 145.19C34.0581 139.705 25.1547 133.627 17.0764 128.113C13.4201 125.602 9.93587 123.269 6.41013 120.8C2.45703 118.088 0.907838 116.099 0.504218 112.045C-0.071534 105.308 0.21931 98.2094 0.0709201 91.3479C-0.0121781 86.6291 -0.041856 78.9128 0.059049 75.8263V75.7907L0.0649845 75.7848Z" fill="#207143"/>
<path d="M93.6397 118.8C93.6397 118.8 -9.2952 151.096 27.0543 12.0781" stroke="#207143" stroke-width="0.593559" stroke-miterlimit="10"/>
</g>
<path d="M275.773 400.552C275.773 400.552 287.858 377.552 308.847 378.917C308.847 378.917 316.919 358.831 343.825 366.434C343.825 366.434 366.719 357.365 377.242 364.992C382.365 368.702 313.637 396.931 313.637 396.931L275.773 400.552Z" fill="#207143"/>
<path d="M275.773 400.55C275.773 400.55 329.686 429.854 370.583 409.11C370.583 409.11 393.601 391.985 377.248 364.984C377.248 364.984 361.192 361.364 355.441 374.861C355.441 374.861 324.849 370.249 318.789 389.938C318.789 389.938 294.862 382.103 275.779 400.545L275.773 400.55Z" fill="#6FD59B"/>
<mask id="mask2_897_4414" style="mask-type:luminance" maskUnits="userSpaceOnUse" x="275" y="364" width="109" height="53">
<path d="M275.773 400.55C275.773 400.55 329.686 429.854 370.583 409.11C370.583 409.11 393.601 391.985 377.248 364.984C377.248 364.984 361.192 361.364 355.441 374.861C355.441 374.861 324.849 370.249 318.789 389.938C318.789 389.938 294.862 382.103 275.779 400.545L275.773 400.55Z" fill="white"/>
</mask>
<g mask="url(#mask2_897_4414)">
<path d="M308.799 384.389C308.799 384.389 326.594 417.854 360.177 420.246" stroke="#207143" stroke-width="0.593559" stroke-miterlimit="10"/>
<path d="M344.472 358.154C344.472 358.154 367.27 387.82 357.791 422.929" stroke="#207143" stroke-width="0.593559" stroke-miterlimit="10"/>
</g>
<path d="M120.527 105.623C120.527 105.623 126.635 114.515 131.811 117.447" stroke="black" stroke-width="2.96779" stroke-linecap="round" stroke-linejoin="round"/>
<path d="M130.47 105.623C130.47 105.623 124.256 113.921 119.187 117.447" stroke="black" stroke-width="2.96779" stroke-linecap="round" stroke-linejoin="round"/>
<path d="M159.109 105.623C159.109 105.623 165.217 114.515 170.393 117.447" stroke="black" stroke-width="2.96779" stroke-linecap="round" stroke-linejoin="round"/>
<path d="M169.051 105.623C169.051 105.623 162.837 113.921 157.768 117.447" stroke="black" stroke-width="2.96779" stroke-linecap="round" stroke-linejoin="round"/>
<path d="M119.181 144.518C119.181 144.518 127.965 136.125 133.883 143.278C133.883 143.278 142.14 135.657 149.066 143.278C149.066 143.278 156.136 135.122 162.534 144.156C162.534 144.156 169.224 135.769 174.233 145.231" stroke="black" stroke-width="2.96779" stroke-linecap="round" stroke-linejoin="round"/>
</g>
<defs>
<clipPath id="clip0_897_4414">
<rect width="494.037" height="446" fill="white"/>
</clipPath>
</defs>
</svg>
