<svg width="454" height="426" viewBox="0 0 454 426" fill="none" xmlns="http://www.w3.org/2000/svg">
<g clip-path="url(#clip0_1127_4569)">
<path d="M223.57 425.57C347.044 425.57 447.14 418.151 447.14 409C447.14 399.848 347.044 392.43 223.57 392.43C100.096 392.43 0 399.848 0 409C0 418.151 100.096 425.57 223.57 425.57Z" fill="#BBB5F4"/>
<path d="M171.891 405.94L203.791 406.25C203.791 406.25 183.431 359.14 175.851 331.31C174.841 327.61 175.721 315.71 175.011 312.85C174.181 309.49 166.681 310.79 166.411 309.07C164.781 298.41 162.951 405.26 171.891 405.95V405.94Z" fill="#BBB5F4"/>
<path d="M52.5996 405.939H71.5596C71.5596 405.939 99.8096 331.339 105.92 329.199C112.03 327.059 85.0096 324.539 85.0096 324.539L52.5996 405.939Z" fill="#BBB5F4"/>
<path d="M63.4506 183.821C63.4506 183.821 101.081 248.631 76.7606 324.761C52.4406 400.891 36.3906 405.931 36.3906 405.931H64.8206C64.8206 405.931 90.9606 336.221 98.7606 332.551C106.561 328.881 153.791 332.551 153.791 332.551C153.791 332.551 161.351 405.931 177.641 405.931H194.611C194.611 405.931 165.571 341.201 170.691 316.471C175.811 291.741 108.621 311.001 102.661 293.571C96.7006 276.141 109.801 167.771 76.7606 171.511C43.7206 175.251 63.4506 183.811 63.4506 183.811V183.821Z" fill="#9B8DE2"/>
<path d="M401.901 212.41H277.161C271.671 212.41 267.221 216.86 267.221 222.35V232.44C267.221 237.93 271.671 242.38 277.161 242.38H302.271C316.311 242.38 327.681 253.76 327.681 267.79V362.37C327.681 372.85 322.701 382.72 314.271 388.94L293.721 404.11C291.621 405.66 292.721 409 295.331 409H383.741C386.351 409 387.451 405.67 385.351 404.11L364.801 388.94C356.361 382.71 351.391 372.85 351.391 362.37V267.79C351.391 253.75 362.771 242.38 376.801 242.38H401.911C407.401 242.38 411.851 237.93 411.851 232.44V222.35C411.851 216.86 407.401 212.41 401.911 212.41H401.901Z" fill="#9B8DE2"/>
<path d="M98.3008 265.721C93.8708 265.151 91.8808 272.941 92.2208 289.341C92.5408 304.521 96.9208 307.801 103.651 306.881C110.381 305.961 157.061 308.411 166.171 310.701C173.401 312.521 153.671 285.111 137.071 293.421C128.821 297.551 124.301 300.301 116.281 298.311C99.4408 294.141 110.061 267.231 98.3008 265.711V265.721Z" fill="#BBB5F4"/>
<path d="M69.8693 175.72C69.8693 175.72 64.3693 205.07 47.8593 196.82C31.3493 188.57 18.5093 129.86 76.2893 122.07C134.069 114.28 117.559 167.47 117.109 175.73C116.659 183.99 130.439 222.58 120.779 228.01C111.119 233.44 100.139 233.05 95.5593 235.81C78.8193 245.86 91.8893 154.64 69.8793 175.73L69.8693 175.72Z" fill="#BBB5F4"/>
<mask id="mask0_1127_4569" style="mask-type:luminance" maskUnits="userSpaceOnUse" x="33" y="121" width="92" height="116">
<path d="M69.8693 175.72C69.8693 175.72 64.3693 205.07 47.8593 196.82C31.3493 188.57 18.5093 129.86 76.2893 122.07C134.069 114.28 117.559 167.47 117.109 175.73C116.659 183.99 130.439 222.58 120.779 228.01C111.119 233.44 100.139 233.05 95.5593 235.81C78.8193 245.86 91.8893 154.64 69.8793 175.73L69.8693 175.72Z" fill="white"/>
</mask>
<g mask="url(#mask0_1127_4569)">
<path d="M30.4292 166.089C30.4292 166.089 36.3892 126.189 73.0792 132.149C109.769 138.109 112.619 174.289 113.489 199.539C114.359 224.789 97.9992 278.159 109.619 265.689C121.239 253.219 162.249 172.259 149.999 149.459C137.749 126.659 115.279 85.3789 94.6392 88.5889C73.9992 91.7989 11.1692 131.239 17.1292 153.249C23.0892 175.259 30.4292 166.089 30.4292 166.089Z" fill="#694EC8"/>
</g>
<path d="M268.32 161.49C268.32 161.49 276.16 177.55 286.97 178.04C297.78 178.53 341.63 172.12 337.57 190.73C333.51 209.34 329.2 212.24 291.19 205.88C253.18 199.52 229.85 179.81 237.6 171.81C245.35 163.81 268.32 161.49 268.32 161.49Z" fill="#6FD59B"/>
<mask id="mask1_1127_4569" style="mask-type:luminance" maskUnits="userSpaceOnUse" x="236" y="161" width="102" height="48">
<path d="M268.32 161.49C268.32 161.49 276.16 177.55 286.97 178.04C297.78 178.53 341.63 172.12 337.57 190.73C333.51 209.34 329.2 212.24 291.19 205.88C253.18 199.52 229.85 179.81 237.6 171.81C245.35 163.81 268.32 161.49 268.32 161.49Z" fill="white"/>
</mask>
<g mask="url(#mask1_1127_4569)">
<g style="mix-blend-mode:multiply" opacity="0.4">
<path d="M377.81 155.409C377.81 155.409 216.2 100.319 213.02 99.8994C209.84 99.4794 150.5 238.329 150.5 238.329C150.5 238.329 306.23 286.459 308.49 286.289C310.75 286.119 358.87 208.239 359.04 206.879C359.21 205.519 377.8 155.399 377.8 155.399L377.81 155.409Z" fill="#207143"/>
</g>
</g>
<path d="M110.92 249.55C110.92 249.55 89.9002 67.9403 217.09 39.0503C344.28 10.1603 331.51 133.41 303.31 149.57C275.11 165.73 234.06 176.63 236.81 200.7C239.56 224.77 208.61 184.88 110.92 249.54V249.55Z" fill="#6FD59B"/>
<mask id="mask2_1127_4569" style="mask-type:luminance" maskUnits="userSpaceOnUse" x="109" y="34" width="213" height="216">
<path d="M110.92 249.55C110.92 249.55 89.9002 67.9403 217.09 39.0503C344.28 10.1603 331.51 133.41 303.31 149.57C275.11 165.73 234.06 176.63 236.81 200.7C239.56 224.77 208.61 184.88 110.92 249.54V249.55Z" fill="white"/>
</mask>
<g mask="url(#mask2_1127_4569)">
<path d="M129.949 233.039C129.949 233.039 139.119 35.8387 310.179 53.2687" stroke="#207143" stroke-miterlimit="10"/>
<path d="M175.35 212.41C175.35 212.41 212.62 56.2802 327.21 83.2102" stroke="#207143" stroke-miterlimit="10"/>
<path d="M115.5 258.549C115.5 258.549 80.4896 52.7087 263.21 35.2188" stroke="#207143" stroke-miterlimit="10"/>
<g style="mix-blend-mode:multiply" opacity="0.4">
<path d="M294.129 31.7193C294.129 31.7193 347.789 115.559 284.959 150.499C237.149 177.089 185.519 108.309 163.429 144.539C150.319 166.049 158.699 199.569 170.689 205.079C182.679 210.589 276.699 205.079 276.699 205.079C276.699 205.079 340.899 151.419 341.819 146.379C342.739 141.339 320.269 28.9793 294.129 31.7293V31.7193Z" fill="#207143"/>
</g>
<path d="M294.583 122.668C295.915 119.773 296.422 117.162 295.714 116.837C295.007 116.511 293.353 118.594 292.021 121.489C290.689 124.384 290.183 126.994 290.89 127.32C291.598 127.645 293.251 125.563 294.583 122.668Z" fill="black"/>
<path d="M311.043 129.484C312.375 126.589 312.955 124.012 312.338 123.728C311.721 123.444 310.141 125.561 308.809 128.456C307.476 131.35 306.897 133.927 307.514 134.211C308.131 134.495 309.711 132.379 311.043 129.484Z" fill="black"/>
</g>
<path d="M272.15 262.419C272.07 262.269 271.98 262.139 271.87 262.029C271.87 262.029 271.85 262.009 271.84 261.999C271.58 261.669 271.3 261.359 271 261.069C264.51 253.759 242.46 226.379 231.36 212.559C232.69 212.489 238.68 203.969 239.89 203.889C306.88 199.339 187.42 176.029 187.42 176.029C187.42 176.029 110.46 189.919 105.91 270.779C105.91 272.739 106.79 274.599 108.31 275.829L133.46 296.489C133.46 296.489 138.81 296.819 139.06 294.149C150.02 301.349 208.3 339.329 217.77 338.379C218.03 338.349 218.33 338.269 218.65 338.159C229.43 337.749 244.8 327.719 257.49 311.759C272.74 292.569 278.76 271.529 272.16 262.429L272.15 262.419ZM229.69 210.459C229.47 210.189 229.26 209.919 229.05 209.669C229.09 209.689 229.35 210.029 229.69 210.459Z" fill="#9B8DE2"/>
<mask id="mask3_1127_4569" style="mask-type:luminance" maskUnits="userSpaceOnUse" x="105" y="176" width="170" height="163">
<path d="M272.15 262.419C272.07 262.269 271.98 262.139 271.87 262.029C271.87 262.029 271.85 262.009 271.84 261.999C271.58 261.669 271.3 261.359 271 261.069C264.51 253.759 242.46 226.379 231.36 212.559C232.69 212.489 238.68 203.969 239.89 203.889C306.88 199.339 187.42 176.029 187.42 176.029C187.42 176.029 110.46 189.919 105.91 270.779C105.91 272.739 106.79 274.599 108.31 275.829L133.46 296.489C133.46 296.489 138.81 296.819 139.06 294.149C150.02 301.349 208.3 339.329 217.77 338.379C218.03 338.349 218.33 338.269 218.65 338.159C229.43 337.749 244.8 327.719 257.49 311.759C272.74 292.569 278.76 271.529 272.16 262.429L272.15 262.419ZM229.69 210.459C229.47 210.189 229.26 209.919 229.05 209.669C229.09 209.689 229.35 210.029 229.69 210.459Z" fill="white"/>
</mask>
<g mask="url(#mask3_1127_4569)">
<path d="M257.027 312.337C273.57 291.517 279.266 268.509 269.748 260.946C260.231 253.384 239.105 264.132 222.562 284.952C206.018 305.772 200.323 328.781 209.84 336.343C219.357 343.905 240.483 333.157 257.027 312.337Z" fill="#694EC8"/>
<path d="M141.92 171.43C141.92 171.43 201.48 197.83 205.62 210.73C208.1 218.45 159.95 209.13 130.87 298.63C121.04 328.89 136.57 326.79 135.16 305.44C133.01 273 189.17 201.73 212.04 222.05C232.65 240.36 257.16 271.31 254.23 273.41C254.23 273.41 290.46 285.33 277.62 262.4C264.78 239.47 174.99 124.49 141.92 171.43Z" fill="#694EC8"/>
<path d="M98.7598 257.211C100.14 256.901 134.07 297.711 137.74 291.291C141.41 284.871 199.65 336.691 212.03 334.401C224.41 332.111 235.42 347.701 233.13 349.991C230.84 352.281 121.46 344.951 112.06 319.261C102.66 293.571 98.7598 257.211 98.7598 257.211Z" fill="#694EC8"/>
</g>
<path d="M296.42 212.64C296.42 212.64 363.99 174.35 369.18 182.6C374.37 190.85 363.37 213.02 363.37 213.02H358.78C358.78 213.02 367.49 192.08 363.67 191.47C359.85 190.86 312.61 212.41 311.31 212.41C310.01 212.41 296.41 212.64 296.41 212.64H296.42Z" fill="#694EC8"/>
<mask id="mask4_1127_4569" style="mask-type:luminance" maskUnits="userSpaceOnUse" x="296" y="181" width="75" height="33">
<path d="M296.42 212.64C296.42 212.64 363.99 174.35 369.18 182.6C374.37 190.85 363.37 213.02 363.37 213.02H358.78C358.78 213.02 367.49 192.08 363.67 191.47C359.85 190.86 312.61 212.41 311.31 212.41C310.01 212.41 296.41 212.64 296.41 212.64H296.42Z" fill="white"/>
</mask>
<g mask="url(#mask4_1127_4569)">
<path d="M302.279 207.59L306.509 210.72C306.509 210.72 359.249 190.69 360.619 188.4C361.989 186.11 352.979 179.99 352.519 179.99C352.059 179.99 302.279 207.58 302.279 207.58V207.59Z" fill="#BBB5F4"/>
</g>
<path d="M308.441 197.52C308.441 197.52 292.521 148.64 301.421 142.27C310.331 135.9 311.521 146.57 311.521 146.57L319.981 196.03L318.091 204.17L308.431 197.52H308.441Z" fill="#694EC8"/>
<path d="M171.68 174.34C171.68 174.34 162.16 138 190.02 138.11C216.09 138.22 218.66 172.5 262.81 169.75C306.96 167 319.98 165.62 321.95 182.13C323.92 198.64 293.66 221.57 266.14 217.9C238.62 214.23 186.34 203.68 171.67 174.33L171.68 174.34Z" fill="#6FD59B"/>
<mask id="mask5_1127_4569" style="mask-type:luminance" maskUnits="userSpaceOnUse" x="170" y="138" width="153" height="81">
<path d="M171.68 174.34C171.68 174.34 162.16 138 190.02 138.11C216.09 138.22 218.66 172.5 262.81 169.75C306.96 167 319.98 165.62 321.95 182.13C323.92 198.64 293.66 221.57 266.14 217.9C238.62 214.23 186.34 203.68 171.67 174.33L171.68 174.34Z" fill="white"/>
</mask>
<g mask="url(#mask5_1127_4569)">
<path d="M177.18 129.399C177.18 129.399 210.41 179.849 236.67 183.059C262.93 186.269 293.2 166.319 309.25 174.119C325.3 181.919 322.68 187.189 322.04 193.379C321.4 199.569 331.16 163.569 322.04 163.569C312.92 163.569 249.63 167.469 238.85 160.589C228.07 153.709 185.42 115.879 177.17 129.409L177.18 129.399Z" fill="#6FD59B"/>
</g>
<path d="M290.57 134.789C290.57 134.789 293.44 147.759 304.21 137.829" stroke="black" stroke-miterlimit="10"/>
<mask id="mask6_1127_4569" style="mask-type:luminance" maskUnits="userSpaceOnUse" x="253" y="0" width="201" height="201">
<path d="M353.17 200.18C408.448 200.18 453.26 155.368 453.26 100.09C453.26 44.8118 408.448 0 353.17 0C297.892 0 253.08 44.8118 253.08 100.09C253.08 155.368 297.892 200.18 353.17 200.18Z" fill="white"/>
</mask>
<g mask="url(#mask6_1127_4569)">
<path d="M333.5 161.49L354.43 -20.1C354.43 -20.1 410.15 -24.92 405.33 -20.1C400.51 -15.28 333.49 161.49 333.49 161.49H333.5Z" fill="#D8D7F4"/>
<path d="M337.84 171.43L411.83 12.2305L447.13 34.6905L337.84 171.43Z" fill="#BBB5F4"/>
<path d="M344.109 172.209L456.239 103.029L461.059 145.679L344.109 172.209Z" fill="#694EC8"/>
<path d="M389.971 124.36L450.051 47.7695L453.261 91.8295L389.971 124.36Z" fill="#9B8DE2"/>
<path d="M325.24 33.9005L307.41 -9.43945H336.69L325.24 33.9005Z" fill="#EFEFF9"/>
</g>
<path d="M356.91 13.5301L358.79 23.9401L369.2 25.8201C369.8 25.9301 369.8 26.7901 369.2 26.9001L358.79 28.7801L356.91 39.1901C356.8 39.7901 355.94 39.7901 355.83 39.1901L353.95 28.7801L343.54 26.9001C342.94 26.7901 342.94 25.9301 343.54 25.8201L353.95 23.9401L355.83 13.5301C355.94 12.9301 356.8 12.9301 356.91 13.5301Z" fill="white"/>
<path d="M399.08 133.53L400.96 143.94L411.37 145.82C411.97 145.93 411.97 146.79 411.37 146.9L400.96 148.78L399.08 159.19C398.97 159.79 398.11 159.79 398 159.19L396.12 148.78L385.71 146.9C385.11 146.79 385.11 145.93 385.71 145.82L396.12 143.94L398 133.53C398.11 132.93 398.97 132.93 399.08 133.53Z" fill="white"/>
<path d="M405.3 55.0008L406.43 61.2308L412.66 62.3608C413.26 62.4708 413.26 63.3308 412.66 63.4408L406.43 64.5708L405.3 70.8008C405.19 71.4008 404.33 71.4008 404.22 70.8008L403.09 64.5708L396.86 63.4408C396.26 63.3308 396.26 62.4708 396.86 62.3608L403.09 61.2308L404.22 55.0008C404.33 54.4008 405.19 54.4008 405.3 55.0008Z" fill="white"/>
</g>
<defs>
<clipPath id="clip0_1127_4569">
<rect width="453.26" height="425.56" fill="white"/>
</clipPath>
</defs>
</svg>
