<svg width="42" height="76" viewBox="0 0 42 76" fill="none" xmlns="http://www.w3.org/2000/svg">
<path d="M23.3099 75.6234C23.1663 75.6234 23.0206 75.6194 22.875 75.6134L17.0158 75.3461C14.3625 75.2244 11.8867 73.9875 10.2209 71.9507C8.595 69.9617 7.88878 67.3742 8.28179 64.8526C10.2628 52.1466 9.84385 46.1477 9.52067 43.9752C8.27181 43.5742 6.47235 42.9498 4.71877 41.3717C2.91132 39.7478 1.54676 36.7235 0.664984 32.3804C0.291924 30.547 -0.478135 25.8967 0.415612 22.3357C0.888421 20.4505 2.2051 18.8704 4.12227 17.8829C5.40703 17.2206 6.91723 16.8575 8.37356 16.8575C9.82989 16.8575 11.0887 17.2026 12.164 17.849C12.3914 14.8965 12.6807 11.8761 13.1515 9.34645C13.5645 7.12604 14.0712 5.47221 14.7455 4.14156C16.6387 0.402985 19.6412 0 20.8441 0C22.4401 0 25.3727 0.638391 27.0844 4.91362C27.6749 6.3899 28.1497 8.34896 28.5347 10.9025C29.1751 15.1418 29.4963 20.4185 29.8055 25.5217C29.8454 26.182 29.8893 26.8942 29.9352 27.6304C30.0709 27.5566 30.2125 27.4847 30.3581 27.4169C31.3636 26.9461 32.5187 26.6967 33.6997 26.6967C36.9835 26.6967 39.8642 28.5361 41.0392 31.3809C42.3799 34.6327 41.6537 39.4426 41.2786 41.3578C40.347 46.1198 38.6353 49.3177 36.1895 50.8638C34.3301 52.0389 32.5027 52.2603 31.196 52.2902C31.3516 55.3405 31.9621 60.6452 32.5187 65.469C32.812 68.0206 31.996 70.5881 30.2764 72.5172C28.5168 74.4923 25.9772 75.6254 23.3139 75.6254L23.3099 75.6234Z" fill="white"/>
<path d="M23.0945 70.8291C25.8475 70.9548 28.0639 68.6666 27.7587 66.0153C26.5517 55.5436 25.8495 49.2874 26.8709 48.3119C28.6904 46.5723 31.202 48.3498 33.6299 46.8156C36.3391 45.104 37.7874 36.0588 36.6104 33.2059C35.9201 31.5322 33.6718 31.1491 32.389 31.7516C29.9193 32.9087 31.3856 38.1096 30.029 39.6697C28.7622 41.126 27.0684 40.6751 26.6016 39.6218C24.4012 34.6483 25.5842 4.78955 20.8441 4.78955C15.7589 4.78955 17.5345 30.8379 14.9151 32.1167C13.6722 32.7232 13.1515 32.3401 12.8583 32.1865C10.6797 31.0554 11.7471 24.0949 9.97552 22.1797C8.95011 21.0705 5.48883 21.7887 5.05792 23.5044C4.08038 27.3966 5.87386 35.977 7.91671 37.8123C9.95956 39.6477 12.3675 39.3086 13.5226 40.7489C14.4183 41.8661 15.5814 49.1119 13.0119 65.5923C12.6169 68.1319 14.5819 70.4441 17.2332 70.5658L23.0925 70.8331L23.0945 70.8291Z" fill="#6FD59B"/>
</svg>
