<svg width="622" height="469" viewBox="0 0 622 469" fill="none" xmlns="http://www.w3.org/2000/svg">
<g clip-path="url(#clip0_1139_5454)">
<path d="M310.93 468.511C482.652 468.511 621.86 453.759 621.86 435.561C621.86 417.364 482.652 402.611 310.93 402.611C139.208 402.611 0 417.364 0 435.561C0 453.759 139.208 468.511 310.93 468.511Z" fill="#D0CEEF"/>
<path d="M462.98 401.49C462.98 401.49 465.43 431.91 463.59 433.74C461.75 435.57 449.22 442.91 445.4 442.91C441.58 442.91 437.45 443.06 442.04 445.66C446.63 448.26 467.87 446.88 469.56 446.88C471.25 446.88 469.41 431.75 473.84 435.11C478.27 438.47 475.98 446.88 475.98 446.88H480.26C480.26 446.88 485.15 438.63 482.25 432.97C479.35 427.31 478.12 410.65 480.72 408.05C483.32 405.45 462.99 401.48 462.99 401.48L462.98 401.49Z" fill="#9B8DE2"/>
<path d="M509.4 401.49C509.4 401.49 506.95 431.91 508.79 433.74C510.63 435.57 523.16 442.91 526.98 442.91C530.8 442.91 534.93 443.06 530.34 445.66C525.75 448.26 504.51 446.88 502.82 446.88C501.13 446.88 502.97 431.75 498.54 435.11C494.11 438.47 496.4 446.88 496.4 446.88H492.12C492.12 446.88 487.23 438.63 490.13 432.97C493.03 427.31 494.26 410.65 491.66 408.05C489.06 405.45 509.39 401.48 509.39 401.48L509.4 401.49Z" fill="#9B8DE2"/>
<path d="M546.17 276.83C531.88 276.25 537.61 306.56 529.35 310.54C526.47 311.93 523.53 312.49 520.79 312.63V291.03C520.79 284.32 519.89 277.62 517.89 271.22C506.36 234.28 472.2 232.23 457.94 267.43C454.72 275.38 453.22 283.93 453.22 292.51V314.87C449.73 325.62 442.26 337.47 426.24 338.46C409.13 339.52 409.73 361.45 427.85 359.15C437.92 357.88 446.43 350.49 453.23 344.3V394.62H520.8V338.15C526.88 339.23 534.65 336.31 542.81 330.61C555.35 321.85 562.99 277.52 546.17 276.83Z" fill="#60BF86"/>
<mask id="mask0_1139_5454" style="mask-type:luminance" maskUnits="userSpaceOnUse" x="413" y="242" width="143" height="153">
<path d="M546.17 276.83C531.88 276.25 537.61 306.56 529.35 310.54C526.47 311.93 523.53 312.49 520.79 312.63V291.03C520.79 284.32 519.89 277.62 517.89 271.22C506.36 234.28 472.2 232.23 457.94 267.43C454.72 275.38 453.22 283.93 453.22 292.51V314.87C449.73 325.62 442.26 337.47 426.24 338.46C409.13 339.52 409.73 361.45 427.85 359.15C437.92 357.88 446.43 350.49 453.23 344.3V394.62H520.8V338.15C526.88 339.23 534.65 336.31 542.81 330.61C555.35 321.85 562.99 277.52 546.17 276.83Z" fill="white"/>
</mask>
<g mask="url(#mask0_1139_5454)">
<path d="M467.09 253.23C467.09 253.23 460.67 346.31 467.09 391.25" stroke="#207143" stroke-miterlimit="10"/>
<path d="M509.491 244.189C509.491 244.189 516.911 362.199 503.881 403.779" stroke="#207143" stroke-miterlimit="10"/>
<path d="M453.231 312.83L451.701 360.06" stroke="#207143" stroke-miterlimit="10"/>
<path d="M521.471 311.08V346.53" stroke="#207143" stroke-miterlimit="10"/>
<path d="M489.22 236.24C489.22 236.24 484.42 418.76 487.78 432.52" stroke="#498E65" stroke-miterlimit="10"/>
<path d="M451.7 310.991C478.03 326.591 498.18 334.061 526.65 307.051C532.46 321.931 529.38 335.981 522.79 350.201L524.4 365.101C501.15 376.921 476.6 376.011 451.25 367.391C448.8 347.661 441.76 335.601 447.81 322.911L451.71 310.991H451.7Z" fill="#BBB5F4"/>
<path d="M503.871 306.561C507.185 306.561 509.871 305.773 509.871 304.801C509.871 303.829 507.185 303.041 503.871 303.041C500.557 303.041 497.871 303.829 497.871 304.801C497.871 305.773 500.557 306.561 503.871 306.561Z" fill="#F5BEF0"/>
<path d="M474.76 305.879C478.073 305.879 480.76 305.091 480.76 304.119C480.76 303.147 478.073 302.359 474.76 302.359C471.446 302.359 468.76 303.147 468.76 304.119C468.76 305.091 471.446 305.879 474.76 305.879Z" fill="#F5BEF0"/>
</g>
<path d="M484.6 304.121C484.6 304.121 485.75 310.851 488.88 311.081C492.01 311.311 493.85 304.581 493.85 304.581L484.6 304.121Z" fill="black"/>
<path d="M498.939 299.979C499.618 299.979 500.169 297.396 500.169 294.209C500.169 291.023 499.618 288.439 498.939 288.439C498.26 288.439 497.709 291.023 497.709 294.209C497.709 297.396 498.26 299.979 498.939 299.979Z" fill="black"/>
<path d="M503.869 286.34C502.699 288.6 499.049 288.93 499.049 288.93" stroke="black" stroke-miterlimit="10" stroke-linecap="round"/>
<path d="M503.69 289.91C501.35 290.9 498.85 289.41 498.85 289.41" stroke="black" stroke-miterlimit="10" stroke-linecap="round"/>
<path d="M478.621 299.95C479.3 299.95 479.851 297.367 479.851 294.18C479.851 290.993 479.3 288.41 478.621 288.41C477.941 288.41 477.391 290.993 477.391 294.18C477.391 297.367 477.941 299.95 478.621 299.95Z" fill="black"/>
<path d="M473.68 286.311C474.85 288.571 478.5 288.901 478.5 288.901" stroke="black" stroke-miterlimit="10" stroke-linecap="round"/>
<path d="M473.859 289.891C476.199 290.881 478.699 289.391 478.699 289.391" stroke="black" stroke-miterlimit="10" stroke-linecap="round"/>
<path d="M451.24 406.311L454.45 421.821C475.44 428.951 496.84 428.951 518.65 421.821L523.85 406.991L451.24 406.311Z" fill="#9B8DE2"/>
<path d="M451.929 375.881H447.369C444.569 375.881 442.299 378.151 442.299 380.951V406.681C442.299 408.641 443.429 410.411 445.189 411.261C476.099 426.211 503.599 425.441 528.219 411.361C529.809 410.451 530.809 408.771 530.809 406.931V383.011C530.809 380.211 528.539 377.941 525.739 377.941H520.489C494.049 389.511 471.119 389.101 451.929 375.881Z" fill="#694EC8"/>
<path d="M228.071 84.0504H184.541V31.7904C184.541 14.3104 170.371 0.150391 152.901 0.150391C135.421 0.150391 121.261 14.3204 121.261 31.7904V84.0504H83.8209C78.3309 84.0504 73.8809 88.5004 73.8809 93.9904C73.8809 99.4804 78.3309 103.93 83.8209 103.93H121.261V331.01H184.551V103.92H228.081C233.571 103.92 238.021 99.4704 238.021 93.9804C238.021 88.4904 233.571 84.0404 228.081 84.0404L228.071 84.0504Z" fill="#6FD59B"/>
<mask id="mask1_1139_5454" style="mask-type:luminance" maskUnits="userSpaceOnUse" x="73" y="0" width="166" height="332">
<path d="M228.071 84.0504H184.541V31.7904C184.541 14.3104 170.371 0.150391 152.901 0.150391C135.421 0.150391 121.261 14.3204 121.261 31.7904V84.0504H83.8209C78.3309 84.0504 73.8809 88.5004 73.8809 93.9904C73.8809 99.4804 78.3309 103.93 83.8209 103.93H121.261V331.01H184.551V103.92H228.081C233.571 103.92 238.021 99.4704 238.021 93.9804C238.021 88.4904 233.571 84.0404 228.081 84.0404L228.071 84.0504Z" fill="white"/>
</mask>
<g mask="url(#mask1_1139_5454)">
<path d="M137.531 -3.30078C137.531 -3.30078 132.941 275.509 137.991 334.209" stroke="#207143" stroke-miterlimit="10"/>
<path d="M120.711 84.0488V103.919" stroke="#207143" stroke-miterlimit="10"/>
<path d="M165.052 -1.91992C165.052 -1.91992 167.342 318.78 160.432 350.57" stroke="#207143" stroke-miterlimit="10"/>
<path d="M185.111 84.0703V103.95" stroke="#207143" stroke-miterlimit="10"/>
<path d="M151.48 -8.82031C151.48 -8.82031 153.68 355.77 151.91 364.37" stroke="#60BF86" stroke-miterlimit="10"/>
</g>
<path d="M147.9 0.5C147.9 0.5 137.14 1.64 141.89 3.99C146.64 6.34 157.54 7.15 149.51 7.35C141.48 7.55 139.54 9.43 142.52 9.9C145.5 10.37 145.62 12.38 144.58 12.52" stroke="#694EC8" stroke-miterlimit="10"/>
<path d="M139.481 3.57031C139.481 3.57031 122.051 10.0203 130.711 11.7903C139.371 13.5603 146.701 17.5203 136.381 18.3203C126.061 19.1203 120.901 22.1403 126.861 22.7503C132.821 23.3603 136.611 24.9003 133.281 26.3003C129.951 27.7003 122.271 32.0703 126.291 31.6703" stroke="#694EC8" stroke-miterlimit="10"/>
<path d="M159.201 1.03125C159.201 1.03125 173.281 1.23125 168.321 4.86125C163.361 8.49125 162.331 10.2013 167.491 11.0013C172.651 11.8013 165.901 9.05125 164.291 14.4412C162.681 19.8312 170.701 11.2312 171.731 14.4412C172.761 17.6512 162.671 20.1712 164.621 21.7812" stroke="#694EC8" stroke-miterlimit="10"/>
<path d="M159.201 48.5107C159.88 48.5107 160.431 45.9274 160.431 42.7407C160.431 39.554 159.88 36.9707 159.201 36.9707C158.521 36.9707 157.971 39.554 157.971 42.7407C157.971 45.9274 158.521 48.5107 159.201 48.5107Z" fill="black"/>
<path d="M142.65 48.5107C143.329 48.5107 143.88 45.9274 143.88 42.7407C143.88 39.554 143.329 36.9707 142.65 36.9707C141.971 36.9707 141.42 39.554 141.42 42.7407C141.42 45.9274 141.971 48.5107 142.65 48.5107Z" fill="black"/>
<path d="M146.861 51.0098C146.861 51.0098 148.011 57.7398 151.141 57.9698C154.271 58.1998 156.111 51.4698 156.111 51.4698L146.861 51.0098Z" fill="black"/>
<path d="M179.881 412.94C160.471 423.18 145.621 421.26 126.841 412.94L116.451 350.57H189.371L179.891 412.94H179.881Z" fill="#9B8DE2"/>
<path d="M121.251 318.781H118.081C113.041 318.781 108.951 322.871 108.951 327.911V348.461C108.951 350.001 109.741 351.431 111.031 352.281C137.961 369.861 166.281 367.441 192.831 350.371C194.111 349.541 194.871 348.111 194.871 346.581V325.351C194.851 321.721 191.911 318.781 188.281 318.781H184.531C161.581 334.081 142.801 333.641 121.241 318.781H121.251Z" fill="#694EC8"/>
<path d="M316.17 310.03C313.84 304.58 308.09 298.7 303.21 296.86V289.1C303.21 278.63 304.82 264.11 299.73 254.96C286.44 231.09 262.52 228.43 246.34 255C240.39 264.77 242.21 278.45 242.21 289.9V298.56C229.8 305.28 222.67 314.89 221.8 327.92C219.6 340 219.11 350.91 222.95 358.88C226.53 364.57 230.24 364.19 234.07 358.88C236.89 344.45 239.58 337.12 242.21 333.44V385.67H303.2V341.4C305.86 343.88 308.1 348.88 309.85 356.82C313.32 360.68 316.98 360.9 320.86 356.82C323.36 334.07 320.86 320.82 316.16 310.04L316.17 310.03Z" fill="#60BF86"/>
<mask id="mask2_1139_5454" style="mask-type:luminance" maskUnits="userSpaceOnUse" x="220" y="236" width="102" height="150">
<path d="M316.17 310.03C313.84 304.58 308.09 298.7 303.21 296.86V289.1C303.21 278.63 304.82 264.11 299.73 254.96C286.44 231.09 262.52 228.43 246.34 255C240.39 264.77 242.21 278.45 242.21 289.9V298.56C229.8 305.28 222.67 314.89 221.8 327.92C219.6 340 219.11 350.91 222.95 358.88C226.53 364.57 230.24 364.19 234.07 358.88C236.89 344.45 239.58 337.12 242.21 333.44V385.67H303.2V341.4C305.86 343.88 308.1 348.88 309.85 356.82C313.32 360.68 316.98 360.9 320.86 356.82C323.36 334.07 320.86 320.82 316.16 310.04L316.17 310.03Z" fill="white"/>
</mask>
<g mask="url(#mask2_1139_5454)">
<path d="M256.791 233.791C258.921 222.761 244.901 289.151 254.271 393.691" stroke="#207143" stroke-miterlimit="10"/>
<path d="M286.44 236.031C284.31 225.001 298.33 291.391 288.96 395.931" stroke="#207143" stroke-miterlimit="10"/>
<path d="M273.101 230.461C273.101 230.461 267.651 387.911 270.991 392.501" stroke="#498E65" stroke-miterlimit="10"/>
<path d="M241.691 296.5L241.461 347.17" stroke="#207143" stroke-miterlimit="10"/>
<path d="M303.842 295.521V349.072" stroke="#207143" stroke-miterlimit="10"/>
</g>
<path d="M259.571 277.47C262.757 277.47 265.341 276.919 265.341 276.24C265.341 275.56 262.757 275.01 259.571 275.01C256.384 275.01 253.801 275.56 253.801 276.24C253.801 276.919 256.384 277.47 259.571 277.47Z" fill="black"/>
<path d="M281.051 277.47C284.238 277.47 286.821 276.919 286.821 276.24C286.821 275.56 284.238 275.01 281.051 275.01C277.865 275.01 275.281 275.56 275.281 276.24C275.281 276.919 277.865 277.47 281.051 277.47Z" fill="black"/>
<path d="M240.96 237.561C242.921 237.561 244.51 235.972 244.51 234.011C244.51 232.05 242.921 230.461 240.96 230.461C239 230.461 237.41 232.05 237.41 234.011C237.41 235.972 239 237.561 240.96 237.561Z" fill="#BBB5F4"/>
<path d="M310.93 275.021C312.786 275.021 314.29 273.516 314.29 271.661C314.29 269.805 312.786 268.301 310.93 268.301C309.075 268.301 307.57 269.805 307.57 271.661C307.57 273.516 309.075 275.021 310.93 275.021Z" fill="#BBB5F4"/>
<path d="M223.191 294.2C224.837 294.2 226.171 292.866 226.171 291.22C226.171 289.574 224.837 288.24 223.191 288.24C221.545 288.24 220.211 289.574 220.211 291.22C220.211 292.866 221.545 294.2 223.191 294.2Z" fill="#BBB5F4"/>
<path d="M290.831 213.96C291.72 213.96 292.441 213.239 292.441 212.35C292.441 211.461 291.72 210.74 290.831 210.74C289.942 210.74 289.221 211.461 289.221 212.35C289.221 213.239 289.942 213.96 290.831 213.96Z" fill="#BBB5F4"/>
<path d="M310.93 230.46C310.93 230.46 329.34 227.64 326.52 230.46C323.7 233.28 308.63 245.55 311.43 245.55H326.82" stroke="#694EC8" stroke-miterlimit="10" stroke-linecap="round"/>
<path d="M208.9 265.751C208.9 265.751 220.13 264.031 218.4 265.751C216.67 267.471 207.49 274.951 209.2 274.951H218.58" stroke="#694EC8" stroke-miterlimit="10" stroke-linecap="round"/>
<path d="M317.131 278.229C317.131 278.229 328.361 276.509 326.631 278.229C324.901 279.949 315.721 287.429 317.431 287.429H326.811" stroke="#694EC8" stroke-miterlimit="10" stroke-linecap="round"/>
<path d="M270.98 281.941C274.001 281.941 276.45 281.668 276.45 281.331C276.45 280.994 274.001 280.721 270.98 280.721C267.959 280.721 265.51 280.994 265.51 281.331C265.51 281.668 267.959 281.941 270.98 281.941Z" fill="black"/>
<path d="M239.92 403.35L247.03 426.97C264.28 435.74 281.48 435.63 298.62 426.97L305.27 400.6L239.92 403.35Z" fill="#9B8DE2"/>
<path d="M242.22 366.82H237.08C235.02 366.82 233.35 368.49 233.35 370.55V399.21C233.35 400.92 234.41 402.45 236 403.07C258.37 411.85 282.83 411.81 309.37 402.97C311.07 402.4 312.23 400.83 312.23 399.04V370.56C312.23 368.5 310.56 366.83 308.5 366.83H303.21C284.46 375.87 263.96 374.91 242.22 366.83V366.82Z" fill="#694EC8"/>
<path d="M431.2 315.49C427.94 304.94 418.98 301.9 409.25 299.76L409.95 280.87C409.95 268.2 405.36 255.87 396.7 246.62C381.87 230.79 359.37 231.61 345.36 248.27C337.84 257.22 333.97 268.67 333.97 280.36V299.421C325.12 300.151 317.44 305.14 311.5 316.52C301.69 330.5 308.29 350.3 311.5 353.51C314.71 356.72 320.13 359.78 325.72 353.51C326.74 344.85 326.74 338.02 325.72 333.03C329.01 329.88 331.72 328.5 333.97 328.43V388.22H405.97L408.07 331.49C410.6 330.7 410.93 330.22 413.77 333.19C412.53 341.5 412.56 347.98 413.77 352.76C418.33 358.631 426.33 359.65 430.28 352.87C433.9 340.96 435.1 328.11 431.2 315.49Z" fill="#9EE8BC"/>
<mask id="mask3_1139_5454" style="mask-type:luminance" maskUnits="userSpaceOnUse" x="306" y="235" width="128" height="154">
<path d="M431.2 315.49C427.94 304.94 418.98 301.9 409.25 299.76L409.95 280.87C409.95 268.2 405.36 255.87 396.7 246.62C381.87 230.79 359.37 231.61 345.36 248.27C337.84 257.22 333.97 268.67 333.97 280.36V299.421C325.12 300.151 317.44 305.14 311.5 316.52C301.69 330.5 308.29 350.3 311.5 353.51C314.71 356.72 320.13 359.78 325.72 353.51C326.74 344.85 326.74 338.02 325.72 333.03C329.01 329.88 331.72 328.5 333.97 328.43V388.22H405.97L408.07 331.49C410.6 330.7 410.93 330.22 413.77 333.19C412.53 341.5 412.56 347.98 413.77 352.76C418.33 358.631 426.33 359.65 430.28 352.87C433.9 340.96 435.1 328.11 431.2 315.49Z" fill="white"/>
</mask>
<g mask="url(#mask3_1139_5454)">
<path d="M350.591 227.801C350.591 227.801 344.501 356.881 350.161 386.841" stroke="#498E65" stroke-miterlimit="10"/>
<path d="M391 230.08C391 230.08 396.81 359.41 391 399.88" stroke="#498E65" stroke-miterlimit="10"/>
<path d="M373.87 228.932C373.87 228.932 369.46 390.602 372.28 399.882L373.87 228.932Z" fill="#6FD59B"/>
<path d="M373.87 228.932C373.87 228.932 369.46 390.602 372.28 399.882" stroke="#60BF86" stroke-miterlimit="10"/>
<path d="M333.211 296.361L333.061 336.091" stroke="#498E65" stroke-miterlimit="10"/>
<path d="M409.93 299.301L408.73 337.931" stroke="#498E65" stroke-miterlimit="10"/>
</g>
<path d="M341.901 240.239C341.411 240.509 330.811 248.189 333.671 255.369C336.531 262.549 338.491 246.499 339.171 248.949C339.851 251.399 327.581 260.719 333.041 265.769C338.501 270.819 340.671 252.159 343.131 254.309C345.591 256.459 337.401 263.789 343.681 269.139C349.961 274.489 350.211 258.319 354.171 259.089C358.131 259.859 358.951 271.279 363.311 268.219C367.671 265.159 363.171 253.539 364.951 253.699C366.731 253.859 366.991 263.339 373.131 261.879C379.271 260.419 372.311 246.669 375.451 250.179C378.591 253.689 373.951 266.689 381.581 267.299C389.211 267.909 388.771 258.509 388.221 257.129C387.671 255.749 390.581 268.369 395.621 266.069C400.661 263.769 402.711 258.579 402.161 257.509C401.611 256.439 403.391 263.939 406.521 261.869C409.651 259.799 404.481 253.479 406.521 255.259C408.561 257.039 409.931 263.159 412.111 260.709C414.291 258.259 412.231 249.069 405.161 244.659C394.371 237.929 370.261 224.329 341.911 240.229L341.901 240.239Z" fill="#BBB5F4"/>
<path d="M346.36 209.51C345.41 208.2 343.39 208.47 342.83 209.98C339.31 219.39 332.87 243.97 360.2 246.59C397.22 250.14 400.82 242.26 401.34 229.27C401.86 216.28 405.87 219.56 405.87 219.56C405.87 219.56 412.2 221.43 414.75 220.02C417.3 218.61 404.31 214.99 407.11 213.68C409.91 212.37 418.27 210.35 416.65 208.52C415.03 206.69 405.83 211.36 404.87 208.54C403.91 205.72 405.67 203.63 402.54 201.26C399.41 198.89 383.23 194.75 380.1 207.92C378.79 213.45 378.79 202.27 355.76 214.54C352.24 216.41 348.56 212.55 346.36 209.51Z" fill="#694EC8"/>
<mask id="mask4_1139_5454" style="mask-type:luminance" maskUnits="userSpaceOnUse" x="339" y="198" width="78" height="50">
<path d="M346.36 209.51C345.41 208.2 343.39 208.47 342.83 209.98C339.31 219.39 332.87 243.97 360.2 246.59C397.22 250.14 400.82 242.26 401.34 229.27C401.86 216.28 405.87 219.56 405.87 219.56C405.87 219.56 412.2 221.43 414.75 220.02C417.3 218.61 404.31 214.99 407.11 213.68C409.91 212.37 418.27 210.35 416.65 208.52C415.03 206.69 405.83 211.36 404.87 208.54C403.91 205.72 405.67 203.63 402.54 201.26C399.41 198.89 383.23 194.75 380.1 207.92C378.79 213.45 378.79 202.27 355.76 214.54C352.24 216.41 348.56 212.55 346.36 209.51Z" fill="white"/>
</mask>
<g mask="url(#mask4_1139_5454)">
<path d="M405.29 207.739C405.29 207.739 400.79 212.169 401.01 215.099C401.28 218.619 405.54 223.389 409.82 223.999C414.1 224.609 419.66 223.659 419.2 220.519C418.74 217.379 426.77 204.619 419.89 205.159C413.01 205.699 405.29 207.739 405.29 207.739Z" fill="#BBB5F4"/>
</g>
<path d="M395.41 210.779C397.846 210.779 399.82 209.418 399.82 207.739C399.82 206.06 397.846 204.699 395.41 204.699C392.974 204.699 391 206.06 391 207.739C391 209.418 392.974 210.779 395.41 210.779Z" fill="white"/>
<path d="M395.7 209.019C396.595 209.019 397.32 208.446 397.32 207.739C397.32 207.032 396.595 206.459 395.7 206.459C394.805 206.459 394.08 207.032 394.08 207.739C394.08 208.446 394.805 209.019 395.7 209.019Z" fill="black"/>
<path d="M381.441 221.021C380.981 221.021 375.941 217.011 365.391 224.231C354.841 231.451 345.211 221.711 353.011 230.771C360.811 239.831 362.371 240.581 371.011 240.171C380.741 239.711 382.021 234.091 382.021 234.091" stroke="#BBB5F4" stroke-miterlimit="10"/>
<path d="M367.32 292.72C367.999 292.72 368.55 290.136 368.55 286.95C368.55 283.763 367.999 281.18 367.32 281.18C366.641 281.18 366.09 283.763 366.09 286.95C366.09 290.136 366.641 292.72 367.32 292.72Z" fill="black"/>
<path d="M376.97 291.979C377.65 291.979 378.2 289.396 378.2 286.209C378.2 283.023 377.65 280.439 376.97 280.439C376.291 280.439 375.74 283.023 375.74 286.209C375.74 289.396 376.291 291.979 376.97 291.979Z" fill="black"/>
<path d="M363.9 293.82C363.9 293.82 372.04 311.02 378.92 293.82" stroke="black" stroke-miterlimit="10"/>
<path d="M332.141 413.751L342.461 451.701C359.601 459.551 376.291 460.051 392.451 451.701C392.451 451.701 405.981 414.671 405.061 413.751C404.141 412.831 332.141 413.751 332.141 413.751Z" fill="#9B8DE2"/>
<path d="M333.981 372.93H326.001C323.951 372.93 322.291 374.59 322.291 376.64V414.51C322.291 415.99 323.171 417.35 324.541 417.93C354.511 430.48 384.201 429.1 413.701 417.88C415.131 417.34 416.071 415.95 416.071 414.41V378.93C416.071 376.88 414.411 375.22 412.361 375.22H406.671C381.081 385.76 356.701 386.23 333.981 372.93Z" fill="#694EC8"/>
<path d="M150.711 287.011C131.451 286.091 138.791 313.151 130.761 315.671C126.171 317.111 119.791 314.331 114.171 311.881V281.131C114.171 266.441 102.261 254.531 87.5705 254.531C72.8805 254.531 60.9705 266.441 60.9705 281.131V313.221C52.3805 316.071 24.3105 327.351 29.1505 352.061C34.0605 377.131 49.2005 373.921 51.1805 373.001C53.1605 372.081 62.8005 365.201 49.8005 352.971C42.1205 345.741 51.3305 336.791 60.9605 334.751V382.021C77.2105 392.291 97.9105 392.291 114.161 382.021V338.651C126.401 341.261 142.421 346.011 148.401 337.981C154.591 329.661 174.081 288.131 150.691 287.011H150.711Z" fill="#60BF86"/>
<mask id="mask5_1139_5454" style="mask-type:luminance" maskUnits="userSpaceOnUse" x="28" y="254" width="134" height="136">
<path d="M150.711 287.011C131.451 286.091 138.791 313.151 130.761 315.671C126.171 317.111 119.791 314.331 114.171 311.881V281.131C114.171 266.441 102.261 254.531 87.5705 254.531C72.8805 254.531 60.9705 266.441 60.9705 281.131V313.221C52.3805 316.071 24.3105 327.351 29.1505 352.061C34.0605 377.131 49.2005 373.921 51.1805 373.001C53.1605 372.081 62.8005 365.201 49.8005 352.971C42.1205 345.741 51.3305 336.791 60.9605 334.751V382.021C77.2105 392.291 97.9105 392.291 114.161 382.021V338.651C126.401 341.261 142.421 346.011 148.401 337.981C154.591 329.661 174.081 288.131 150.691 287.011H150.711Z" fill="white"/>
</mask>
<g mask="url(#mask5_1139_5454)">
<path d="M60.5114 311.531C60.5114 311.531 60.4814 342.181 60.5114 344.931" stroke="#207143" stroke-miterlimit="10"/>
<path d="M114.731 310.5L114.691 348.83" stroke="#207143" stroke-miterlimit="10"/>
<path d="M71.8507 254.74C71.8507 254.74 66.3507 396.55 71.8507 420.27" stroke="#207143" stroke-miterlimit="10"/>
<path d="M104.561 251.08C104.561 251.08 106.101 358.09 103.041 393.86" stroke="#207143" stroke-miterlimit="10"/>
<path d="M87.5022 250.461C87.5022 250.461 85.3322 407.431 84.9922 410.361" stroke="#498E65" stroke-miterlimit="10"/>
</g>
<path d="M108.671 445.611L105.841 448.581C94.6007 454.701 79.4507 453.271 68.7707 446.221L60.9707 404.641C77.9707 411.601 97.0207 411.601 114.011 404.641L108.661 445.611H108.671Z" fill="#9B8DE2"/>
<path d="M60.9799 377.351C60.9799 377.351 51.7499 378.271 52.6699 386.751C53.5899 395.231 56.1299 404.641 56.1299 404.641C56.1299 404.641 92.3599 426.651 122.51 401.091C124.65 389.721 127.38 382.811 121.59 379.651C116.22 376.721 114.71 376.901 114.02 377.361C113.33 377.821 89.5699 397.761 60.9799 377.361V377.351Z" fill="#694EC8"/>
<path d="M99.1607 307.362C104.512 307.362 108.851 303.194 108.851 298.052C108.851 292.91 104.512 288.742 99.1607 288.742C93.8091 288.742 89.4707 292.91 89.4707 298.052C89.4707 303.194 93.8091 307.362 99.1607 307.362Z" stroke="#694EC8" stroke-miterlimit="10"/>
<path d="M83.0703 308.381C83.1503 309.341 88.6503 320.921 94.4603 308.381" stroke="black" stroke-miterlimit="10"/>
<path d="M99.1597 304.321C99.839 304.321 100.39 301.738 100.39 298.551C100.39 295.365 99.839 292.781 99.1597 292.781C98.4804 292.781 97.9297 295.365 97.9297 298.551C97.9297 301.738 98.4804 304.321 99.1597 304.321Z" fill="black"/>
<path d="M78.2603 307.362C83.612 307.362 87.9503 303.194 87.9503 298.052C87.9503 292.91 83.612 288.742 78.2603 288.742C72.9087 288.742 68.5703 292.91 68.5703 298.052C68.5703 303.194 72.9087 307.362 78.2603 307.362Z" stroke="#694EC8" stroke-miterlimit="10"/>
<path d="M78.2613 304.321C78.9406 304.321 79.4912 301.738 79.4912 298.551C79.4912 295.365 78.9406 292.781 78.2613 292.781C77.5819 292.781 77.0312 295.365 77.0312 298.551C77.0312 301.738 77.5819 304.321 78.2613 304.321Z" fill="black"/>
<path d="M60.5098 312.961C60.5098 312.961 61.9798 347.551 93.7798 361.151C125.58 374.751 114.91 339.041 114.91 339.041" stroke="#694EC8" stroke-miterlimit="10"/>
<path d="M113.651 359.332H92.4306C91.1659 359.332 90.1406 360.357 90.1406 361.622V372.292C90.1406 373.557 91.1659 374.582 92.4306 374.582H113.651C114.915 374.582 115.941 373.557 115.941 372.292V361.622C115.941 360.357 114.915 359.332 113.651 359.332Z" fill="#9B8DE2"/>
<mask id="mask6_1139_5454" style="mask-type:luminance" maskUnits="userSpaceOnUse" x="90" y="359" width="26" height="16">
<path d="M113.651 359.332H92.4306C91.1659 359.332 90.1406 360.357 90.1406 361.622V372.292C90.1406 373.557 91.1659 374.582 92.4306 374.582H113.651C114.915 374.582 115.941 373.557 115.941 372.292V361.622C115.941 360.357 114.915 359.332 113.651 359.332Z" fill="white"/>
</mask>
<g mask="url(#mask6_1139_5454)">
<path d="M91.5801 357.321C89.9701 358.521 87.5701 360.591 89.1701 360.871C90.7701 361.151 98.6301 367.581 102.3 367.411C105.97 367.241 117.95 361.621 118.52 359.331C119.09 357.041 91.5801 357.321 91.5801 357.321Z" fill="#BBB5F4"/>
</g>
<path d="M154.529 360.899C154.934 360.65 153.639 357.81 151.637 354.554C149.635 351.299 147.684 348.861 147.279 349.11C146.875 349.359 148.17 352.2 150.172 355.455C152.174 358.711 154.125 361.148 154.529 360.899Z" fill="#9B8DE2"/>
<path d="M162.138 360.862C162.564 360.653 161.549 357.701 159.87 354.268C158.191 350.834 156.484 348.22 156.058 348.429C155.631 348.637 156.646 351.59 158.325 355.023C160.004 358.456 161.711 361.07 162.138 360.862Z" fill="#9B8DE2"/>
<path d="M155.331 357.975C155.785 357.836 155.242 354.761 154.118 351.108C152.994 347.455 151.715 344.607 151.261 344.747C150.807 344.887 151.35 347.961 152.474 351.614C153.598 355.267 154.877 358.115 155.331 357.975Z" fill="#9B8DE2"/>
<path d="M248.35 352.95C250.352 349.694 251.647 346.854 251.242 346.605C250.838 346.356 248.887 348.793 246.885 352.049C244.883 355.304 243.588 358.145 243.992 358.394C244.397 358.643 246.348 356.205 248.35 352.95Z" fill="#9B8DE2"/>
<path d="M240.234 352.607C241.913 349.174 242.928 346.222 242.501 346.013C242.074 345.805 240.367 348.419 238.688 351.852C237.01 355.285 235.994 358.238 236.421 358.446C236.848 358.655 238.555 356.041 240.234 352.607Z" fill="#9B8DE2"/>
<path d="M246.05 349.128C247.174 345.475 247.717 342.401 247.263 342.261C246.809 342.121 245.53 344.969 244.406 348.622C243.282 352.275 242.739 355.35 243.193 355.489C243.647 355.629 244.926 352.781 246.05 349.128Z" fill="#9B8DE2"/>
<path d="M239.669 349.929L226.019 361.279C225.619 352.709 222.649 344.429 217.239 338.009C206.099 324.799 190.309 324.889 179.179 338.969C174.509 344.879 171.809 352.229 171.189 359.879L158.349 352.229C151.569 347.009 149.439 350.039 150.099 358.039C151.619 371.499 159.129 381.229 170.889 388.309L171.049 387.309V399.39H226.079V389.119C239.219 379.439 248.269 368.669 249.159 355.739C250.909 346.229 246.249 346.609 239.679 349.929H239.669Z" fill="#6FD59B"/>
<mask id="mask7_1139_5454" style="mask-type:luminance" maskUnits="userSpaceOnUse" x="149" y="328" width="101" height="72">
<path d="M239.669 349.929L226.019 361.279C225.619 352.709 222.649 344.429 217.239 338.009C206.099 324.799 190.309 324.889 179.179 338.969C174.509 344.879 171.809 352.229 171.189 359.879L158.349 352.229C151.569 347.009 149.439 350.039 150.099 358.039C151.619 371.499 159.129 381.229 170.889 388.309L171.049 387.309V399.39H226.079V389.119C239.219 379.439 248.269 368.669 249.159 355.739C250.909 346.229 246.249 346.609 239.679 349.929H239.669Z" fill="white"/>
</mask>
<g mask="url(#mask7_1139_5454)">
<path d="M182.608 325.631C182.608 325.631 178.228 365.241 181.368 397.781L182.608 325.631Z" fill="#6FD59B"/>
<path d="M182.608 325.631C182.608 325.631 178.228 365.241 181.368 397.781" stroke="#207143" stroke-miterlimit="10"/>
<path d="M213.387 325.281C213.387 325.281 216.798 379.851 211.188 396.971L213.387 325.281Z" fill="#6FD59B"/>
<path d="M213.387 325.281C213.387 325.281 216.798 379.851 211.188 396.971" stroke="#207143" stroke-miterlimit="10"/>
<path d="M199.737 324.48C199.737 324.48 197.617 412.29 196.857 415.28L199.737 324.48Z" fill="#6FD59B"/>
<path d="M199.737 324.48C199.737 324.48 197.617 412.29 196.857 415.28" stroke="#60BF86" stroke-miterlimit="10"/>
<path d="M170.718 356.74C170.718 356.74 169.038 389.15 171.478 396.79L170.718 356.74Z" fill="#6FD59B"/>
<path d="M170.718 356.74C170.718 356.74 169.038 389.15 171.478 396.79" stroke="#207143" stroke-miterlimit="10"/>
<path d="M226.498 358.691C226.498 358.691 228.018 383.001 226.498 398.591V358.691Z" fill="#6FD59B"/>
<path d="M226.498 358.691C226.498 358.691 228.018 383.001 226.498 398.591" stroke="#207143" stroke-miterlimit="10"/>
</g>
<path d="M207.869 365.028C208.548 365.028 209.099 362.445 209.099 359.258C209.099 356.072 208.548 353.488 207.869 353.488C207.189 353.488 206.639 356.072 206.639 359.258C206.639 362.445 207.189 365.028 207.869 365.028Z" fill="black"/>
<path d="M212.799 351.389C211.629 353.649 207.979 353.979 207.979 353.979" stroke="black" stroke-miterlimit="10" stroke-linecap="round"/>
<path d="M212.619 354.959C210.279 355.949 207.779 354.459 207.779 354.459" stroke="black" stroke-miterlimit="10" stroke-linecap="round"/>
<path d="M187.55 364.999C188.23 364.999 188.78 362.416 188.78 359.229C188.78 356.042 188.23 353.459 187.55 353.459C186.871 353.459 186.32 356.042 186.32 359.229C186.32 362.416 186.871 364.999 187.55 364.999Z" fill="black"/>
<path d="M182.609 351.359C183.779 353.619 187.429 353.949 187.429 353.949" stroke="black" stroke-miterlimit="10" stroke-linecap="round"/>
<path d="M182.799 354.93C185.139 355.92 187.639 354.43 187.639 354.43" stroke="black" stroke-miterlimit="10" stroke-linecap="round"/>
<path d="M195.4 371.849C195.4 371.849 197.98 371.279 199.36 371.689C200.74 372.099 200.89 371.849 200.89 371.849C200.89 371.849 198.86 376.269 195.4 372.009" fill="#660008"/>
<path d="M192.289 367.84C192.289 367.84 198.479 381.31 203.179 367.84" stroke="#660008" stroke-miterlimit="10"/>
<path d="M170.429 415.02C170.429 415.02 161.479 449.82 193.029 452.65C234.709 456.4 225.109 415.56 225.109 415.56L170.439 415.02H170.429Z" fill="#9B8DE2"/>
<path d="M171.83 391.279H169.61C166.93 391.279 164.74 393.419 164.68 396.099L164.18 417.879C186.49 428.629 208.81 428.889 231.14 418.639V395.059C231.14 392.339 228.93 390.129 226.21 390.129H225.49C208.8 401.339 190.78 400.449 171.84 391.279H171.83Z" fill="#694EC8"/>
<path d="M181.409 334.089C181.409 334.089 183.569 325.649 178.369 330.629C173.159 335.599 168.979 342.529 173.429 342.029L178.329 341.479C178.329 341.479 175.259 343.769 177.159 344.389C179.059 345.009 180.239 342.599 180.239 342.599C180.239 342.599 180.049 347.929 182.019 347.569C183.989 347.209 193.339 337.829 191.079 336.469C188.819 335.109 184.389 336.469 184.389 336.469C184.389 336.469 186.359 334.109 184.909 334.279C183.459 334.449 181.749 335.909 181.749 335.909L181.429 334.099L181.409 334.089Z" fill="#9B8DE2"/>
</g>
<defs>
<clipPath id="clip0_1139_5454">
<rect width="621.86" height="468.5" fill="white"/>
</clipPath>
</defs>
</svg>
