<svg width="671" height="299" viewBox="0 0 671 299" fill="none" xmlns="http://www.w3.org/2000/svg">
<path d="M156.365 11.1572C176.964 11.1579 171.823 140.914 181.386 162.527C183.414 167.105 190.774 169.064 196.279 162.735C202.175 155.956 195.803 133.355 206.535 128.326C212.11 125.708 221.88 127.373 224.88 134.646C229.995 147.044 223.701 186.352 211.928 193.79C201.377 200.456 190.462 192.732 182.556 200.292C178.117 204.532 181.169 231.72 186.414 277.226C187.74 288.747 178.108 298.691 166.145 298.145L166.136 298.162L140.673 297C129.151 296.471 120.612 286.424 122.328 275.388C133.494 203.769 128.44 172.281 124.548 167.426C119.528 161.166 109.064 162.64 100.187 154.664C91.309 146.688 83.5147 109.401 87.7627 92.4863C89.6353 85.0306 104.678 81.9093 109.134 86.7295C116.832 95.0522 112.194 125.3 121.661 130.216C122.936 130.883 125.198 132.549 130.6 129.913C141.983 124.355 134.267 11.1572 156.365 11.1572ZM474.622 167.185C474.865 171.71 475.143 176.296 475.446 180.943C475.75 185.59 476.027 190.237 476.27 194.884C476.755 203.813 477.275 212.648 477.83 221.396C478.376 230.143 478.957 238.552 479.572 246.623C479.815 250.169 480.639 253.23 482.052 255.796C483.456 258.362 485.355 260.321 487.739 261.665C490.123 263.009 492.846 263.686 495.906 263.686C498.966 263.686 501.688 263.017 504.072 261.665C506.456 260.321 508.355 258.362 509.76 255.796C511.164 253.23 511.988 250.169 512.239 246.623C512.855 238.552 513.436 230.143 513.982 221.396C514.529 212.648 515.049 203.813 515.543 194.884C515.786 190.237 516.063 185.59 516.366 180.943C516.67 176.296 516.947 171.71 517.189 167.185H552.414C551.92 174.276 551.469 181.342 551.035 188.373C550.602 195.404 550.212 202.47 549.839 209.562C549.353 216.653 548.894 223.719 548.461 230.75C548.027 237.781 547.576 244.846 547.082 251.938C546.102 266.129 541.031 277.322 531.858 285.515C522.686 293.707 510.696 297.809 495.897 297.809C486.11 297.809 477.458 295.945 469.933 292.217L469.949 292.208C462.424 288.48 456.495 283.157 452.151 276.247C447.808 269.337 445.328 261.231 444.721 251.938C444.227 244.846 443.776 237.781 443.343 230.75C442.909 223.719 442.519 216.653 442.155 209.562C441.661 202.47 441.21 195.404 440.776 188.373C440.343 181.342 439.893 174.276 439.398 167.185H474.622ZM614.636 163.51C622.95 163.51 630.814 164.489 638.209 166.448C645.613 168.408 652.184 171.095 657.932 174.52V209.016C651.941 205.106 645.361 201.924 638.209 199.479C631.057 197.035 624.294 195.813 617.939 195.812C614.142 195.812 611.056 196.151 608.672 196.818C606.288 197.495 604.571 198.378 603.539 199.479C602.499 200.58 601.979 201.681 601.979 202.782C601.979 204.247 602.559 205.6 603.721 206.822C604.882 208.045 606.868 209.328 609.686 210.672C612.494 212.016 616.656 213.671 622.161 215.622C631.576 219.047 638.98 222.653 644.364 226.45C649.748 230.247 653.597 234.435 655.92 239.021C658.243 243.608 659.405 249.087 659.405 255.441C659.405 263.764 657.42 271.064 653.44 277.366C649.461 283.669 644.017 288.532 637.116 291.948C630.207 295.373 622.404 297.09 613.726 297.09C605.776 297.09 598.502 296.353 591.896 294.888L591.87 294.87C585.264 293.405 579.455 291.385 574.444 288.819V255.06C579.949 258.241 585.602 260.842 591.41 262.854C597.219 264.874 602.941 265.879 608.567 265.879C611.749 265.879 614.437 265.542 616.639 264.874C618.841 264.206 620.523 263.287 621.685 262.125C622.846 260.963 623.427 259.715 623.427 258.363C623.427 256.655 622.881 255.12 621.78 253.776C620.679 252.433 618.442 250.933 615.087 249.286C611.723 247.63 606.678 245.523 599.95 242.957C593.223 240.27 587.44 237.148 582.611 233.603C577.782 230.057 573.985 225.895 571.236 221.127C568.48 216.359 567.109 210.854 567.109 204.612C567.109 196.298 569.095 189.05 573.074 182.869C577.045 176.697 582.611 171.928 589.771 168.556C596.924 165.192 605.212 163.51 614.636 163.51ZM276.298 164.601C281.682 164.601 287.187 165.217 292.813 166.439C298.44 167.662 303.642 169.318 308.41 171.39V206.249C303.885 203.804 299.081 201.88 294.01 200.467C288.93 199.062 284.136 198.36 279.61 198.36C273.247 198.36 267.68 199.704 262.912 202.4C258.144 205.088 254.442 208.79 251.815 213.497C249.18 218.205 247.871 223.562 247.871 229.553C247.871 235.916 249.155 241.603 251.721 246.614C254.287 251.634 257.893 255.545 262.549 258.354C267.196 261.171 272.518 262.575 278.509 262.575C283.277 262.575 288.323 261.908 293.646 260.556C298.969 259.212 303.885 257.253 308.419 254.687V289.546C303.894 291.627 298.631 293.274 292.641 294.496C286.65 295.718 280.833 296.334 275.215 296.334C262.861 296.334 251.824 293.43 242.097 287.621H242.088C232.361 281.813 224.776 273.837 219.34 263.677C213.895 253.525 211.173 242.15 211.173 229.553C211.173 216.956 213.921 206.284 219.426 196.436C224.931 186.596 232.604 178.819 242.452 173.132C252.292 167.445 263.58 164.601 276.298 164.601ZM65.3174 162.034C70.7012 162.034 76.2065 162.65 81.833 163.872C87.4595 165.094 92.6615 166.75 97.4297 168.822V203.683C92.9042 201.238 88.101 199.313 83.0293 197.899C77.949 196.495 73.1543 195.793 68.6289 195.793C62.2656 195.793 56.6998 197.137 51.9316 199.833C47.1636 202.52 43.4618 206.222 40.835 210.93C38.1994 215.637 36.8906 220.996 36.8906 226.986C36.8907 233.35 38.1731 239.037 40.7393 244.048C43.3054 249.067 46.912 252.977 51.5674 255.786C56.2142 258.604 61.5377 260.009 67.5283 260.009C72.2965 260.009 77.342 259.341 82.665 257.988C87.9881 256.645 92.9043 254.685 97.4385 252.119V286.979C92.913 289.06 87.6498 290.707 81.6592 291.93C75.6687 293.152 69.8511 293.768 64.2334 293.768C51.8795 293.768 40.8433 290.863 31.1162 285.055H31.1074C21.3803 279.246 13.7942 271.27 8.3584 261.109C2.91403 250.957 0.192414 239.583 0.192383 226.986C0.192383 214.39 2.94017 203.717 8.44531 193.868C13.9505 184.02 21.6232 176.252 31.4717 170.564C41.3115 164.877 52.5993 162.034 65.3174 162.034ZM425.83 200.197H392.07V293.768H356.664V200.197H322.724V167.175H425.83V200.197ZM247.431 13.0742C247.673 17.5996 247.95 22.1862 248.254 26.833C248.557 31.4797 248.835 36.1267 249.078 40.7734C249.564 49.7028 250.084 58.5368 250.639 67.2842C251.185 76.0317 251.765 84.4414 252.381 92.5127C252.624 96.0585 253.447 99.1194 254.86 101.686C256.265 104.252 258.164 106.211 260.548 107.555C262.932 108.898 265.655 109.574 268.715 109.574C271.775 109.574 274.497 108.907 276.881 107.555C279.265 106.211 281.164 104.252 282.568 101.686C283.973 99.1194 284.796 96.0585 285.048 92.5127C285.655 84.4414 286.244 76.0317 286.79 67.2842C287.336 58.5455 287.856 49.7028 288.351 40.7734C288.593 36.1267 288.871 31.4797 289.175 26.833C289.478 22.1862 289.755 17.5996 289.998 13.0742H325.223C324.728 20.1658 324.277 27.2318 323.844 34.2627C323.41 41.2934 323.02 48.3588 322.647 55.4502C322.153 62.5418 321.703 69.6078 321.27 76.6387C320.836 83.6696 320.385 90.7355 319.891 97.8271C318.911 112.019 313.839 123.212 304.667 131.404C295.495 139.597 283.505 143.697 268.706 143.697C258.918 143.697 250.265 141.833 242.749 138.105L242.767 138.098C235.241 134.37 229.311 129.046 224.968 122.137C220.624 115.227 218.145 107.121 217.538 97.8271C217.044 90.7355 216.594 83.6696 216.16 76.6387C215.727 69.6078 215.337 62.5418 214.964 55.4502C214.47 48.3588 214.018 41.2934 213.585 34.2627C213.151 27.2318 212.7 20.1658 212.206 13.0742H247.431ZM396.988 9.38965C405.302 9.38965 413.166 10.3689 420.561 12.3281C427.956 14.2874 434.536 16.9759 440.284 20.4004V54.8955C434.294 50.9856 427.713 47.8042 420.561 45.3594C413.408 42.9147 406.647 41.6924 400.292 41.6924C396.495 41.6924 393.408 42.0308 391.024 42.6982C388.64 43.3745 386.923 44.2583 385.883 45.3594C384.843 46.4602 384.322 47.5612 384.322 48.6621C384.322 50.1273 384.904 51.4797 386.065 52.7021C387.227 53.9245 389.212 55.208 392.029 56.5518C394.838 57.8955 399 59.5513 404.505 61.502C413.92 64.9264 421.324 68.5328 426.708 72.3301C432.092 76.1186 435.941 80.3152 438.265 84.9014C440.588 89.4875 441.749 94.9667 441.749 101.321C441.749 109.644 439.764 116.943 435.785 123.246C431.806 129.549 426.361 134.412 419.46 137.828C412.55 141.253 404.748 142.97 396.069 142.97C388.12 142.97 380.846 142.233 374.24 140.768L374.223 140.759C367.617 139.294 361.808 137.274 356.797 134.708V100.948C362.302 104.13 367.954 106.731 373.771 108.742C379.58 110.762 385.302 111.768 390.929 111.768C394.11 111.768 396.798 111.43 399 110.763C401.202 110.095 402.884 109.175 404.046 108.014C405.207 106.852 405.788 105.604 405.788 104.252C405.788 102.544 405.242 101.009 404.141 99.665C403.04 98.3214 400.803 96.8217 397.448 95.166C394.085 93.5188 389.039 91.403 382.312 88.8369C375.584 86.1494 369.801 83.0283 364.972 79.4824C360.134 75.9366 356.346 71.775 353.598 67.0068C350.85 62.2388 349.471 56.734 349.471 50.4922C349.471 42.1782 351.456 34.9303 355.436 28.749C359.406 22.5764 364.972 17.808 372.133 14.4355C379.285 11.0718 387.573 9.38969 396.988 9.38965ZM552.555 44.2578H507.058V59.1172H547.414V90.3096H507.058V108.473H552.555V139.666H472.562V13.0645H552.555V44.2578ZM41.293 7.92578C51.6875 7.92579 60.8597 9.7898 68.8096 13.5176C76.7595 17.2541 82.9066 22.4124 87.25 29.0186C91.5934 35.6247 93.7607 43.1418 93.7607 51.5859C93.7607 60.8793 91.6194 69.0804 87.3369 76.1719C83.0542 83.2635 76.9421 88.7435 68.9922 92.5928C61.0423 96.442 51.8089 98.375 41.2842 98.375H34.8604V134.519H0V71.127L0.00878906 71.1348V7.92578H41.293ZM34.8604 66.4541H39.4463C43.1133 66.4541 46.3903 65.8471 49.2598 64.6162C52.1294 63.3938 54.3317 61.6504 55.8662 59.3877C57.392 57.125 58.1641 54.524 58.1641 51.5938C58.164 49.0277 57.4873 46.7046 56.1436 44.624C54.7998 42.5434 52.8406 40.9225 50.2744 39.7607C47.7082 38.599 44.7086 38.0176 41.2842 38.0176H34.8604V66.4541Z" fill="url(#paint0_linear_743_3130)"/>
<path d="M611.94 137.093C611.713 137.037 611.484 136.974 611.256 136.907L602.087 134.173C597.936 132.933 594.47 129.876 592.577 125.779C590.729 121.779 590.554 117.124 592.092 113.008C599.848 92.2706 601.367 81.9525 601.647 78.149C599.817 76.9839 597.199 75.2261 595 71.872C592.732 68.4192 591.674 62.7681 591.86 55.0728C591.937 51.8239 592.411 43.652 595.12 37.9719C596.553 34.9647 599.21 32.8027 602.601 31.8776C604.874 31.2567 607.395 31.2302 609.698 31.7973C612.001 32.3644 613.866 33.4388 615.331 34.9517C616.765 30.0422 618.321 25.0419 619.986 20.943C621.447 17.3451 622.85 14.7428 624.4 12.7529C628.754 7.16142 633.649 7.64841 635.552 8.11685C638.076 8.73834 642.481 10.961 643.633 18.8647C644.03 21.5937 644.068 25.0949 643.748 29.5675C643.218 36.9933 641.807 46.0508 640.439 54.8098C640.262 55.9432 640.072 57.1659 639.877 58.4299C640.118 58.3578 640.369 58.2914 640.624 58.2333C642.385 57.8278 644.302 57.8555 646.17 58.3154C651.363 59.5941 655.25 63.8295 656.073 69.1029C657.01 75.1296 654.112 82.989 652.822 86.085C649.616 93.7834 645.746 98.5303 641.316 100.195C637.948 101.46 634.977 101.124 632.9 100.665C632.036 105.89 631.072 115.107 630.197 123.49C629.733 127.923 627.509 131.952 624.087 134.548C620.586 137.206 616.158 138.135 611.946 137.098L611.94 137.093Z" fill="white"/>
<path d="M613.342 128.894C617.65 130.178 621.988 127.168 622.469 122.561C624.37 104.364 625.536 93.5004 627.506 92.2467C631.016 90.0104 634.341 93.9974 638.739 92.3459C643.646 90.5033 649.227 75.7555 648.404 70.4679C647.921 67.3657 644.505 65.8418 642.257 66.3621C637.93 67.3591 638.357 76.7342 635.644 78.8468C633.111 80.8188 630.596 79.396 630.241 77.4312C628.571 68.1552 641.304 18.0707 633.808 16.2249C625.766 14.2446 619.098 59.0309 614.49 60.1756C612.304 60.7183 611.62 59.8671 611.212 59.4929C608.178 56.7298 612.398 45.3626 610.293 41.4308C609.075 39.1538 603.34 39.0217 602.035 41.7582C599.073 47.9663 598.788 63.1896 601.35 67.0921C603.913 70.9945 607.845 71.3581 609.148 74.2461C610.158 76.4861 609.361 89.2047 599.302 116.102C597.754 120.248 600.02 124.927 604.169 126.165L613.337 128.899L613.342 128.894Z" fill="#6FD59B"/>
<defs>
<linearGradient id="paint0_linear_743_3130" x1="329.703" y1="7.92578" x2="329.703" y2="298.166" gradientUnits="userSpaceOnUse">
<stop stop-color="white" stop-opacity="0.7"/>
<stop offset="1" stop-color="white" stop-opacity="0"/>
</linearGradient>
</defs>
</svg>
