<svg width="274" height="121" viewBox="0 0 274 121" fill="none" xmlns="http://www.w3.org/2000/svg">
<path d="M64.7783 1.33887C73.3119 1.33887 71.1822 55.0934 75.1436 64.0479C75.984 65.9442 79.0338 66.7557 81.3145 64.1338C83.7563 61.3248 81.1172 51.962 85.5635 49.8789C87.8729 48.7945 91.9204 49.4841 93.1631 52.4971C95.2821 57.6331 92.6743 73.9174 87.7969 76.999C83.4259 79.7609 78.9044 76.5615 75.6289 79.6934C73.7902 81.45 75.0537 92.7128 77.2266 111.564C77.7761 116.338 73.7864 120.458 68.8301 120.231L68.8262 120.238L58.2773 119.757C53.5045 119.538 49.9669 115.376 50.6777 110.804C55.3036 81.134 53.2103 68.0888 51.5977 66.0771C49.5181 63.484 45.1827 64.0943 41.5049 60.79C37.8272 57.4853 34.5986 42.0383 36.3584 35.0312C37.1344 31.9426 43.3659 30.6496 45.2119 32.6465C48.4011 36.0946 46.4794 48.6257 50.4014 50.6621C50.9293 50.9387 51.8669 51.628 54.1045 50.5361C58.8199 48.2325 55.6238 1.3396 64.7783 1.33887ZM196.626 65.9775C196.727 67.8524 196.841 69.7526 196.967 71.6777C197.093 73.6028 197.208 75.528 197.309 77.4531C197.51 81.1524 197.725 84.8126 197.955 88.4365C198.181 92.0603 198.422 95.5441 198.677 98.8877C198.777 100.357 199.119 101.624 199.704 102.688C200.286 103.751 201.073 104.562 202.061 105.119C203.048 105.676 204.176 105.956 205.443 105.956C206.711 105.956 207.839 105.679 208.827 105.119C209.815 104.562 210.601 103.75 211.183 102.688C211.764 101.624 212.106 100.357 212.21 98.8877C212.465 95.5441 212.705 92.0603 212.932 88.4365C213.158 84.8126 213.373 81.1524 213.578 77.4531C213.679 75.528 213.794 73.6028 213.92 71.6777C214.046 69.7526 214.16 67.8524 214.261 65.9775H228.854C228.649 68.9155 228.462 71.8431 228.282 74.7559C228.103 77.6685 227.942 80.5955 227.787 83.5332C227.586 86.4711 227.395 89.3987 227.216 92.3115C227.036 95.2241 226.849 98.1511 226.645 101.089C226.239 106.968 224.138 111.606 220.338 115C216.538 118.394 211.57 120.093 205.439 120.093C201.385 120.093 197.8 119.32 194.683 117.775L194.69 117.772C191.573 116.228 189.116 114.023 187.316 111.16C185.517 108.298 184.49 104.939 184.238 101.089C184.034 98.1511 183.848 95.2241 183.668 92.3115C183.488 89.3987 183.327 86.4711 183.176 83.5332C182.971 80.5954 182.784 77.6685 182.604 74.7559C182.425 71.8431 182.238 68.9155 182.033 65.9775H196.626ZM254.631 64.4551C258.075 64.4551 261.333 64.8612 264.396 65.6729C267.463 66.4845 270.185 67.5981 272.566 69.0166V83.3076C270.085 81.6879 267.359 80.3692 264.396 79.3564C261.433 78.3436 258.632 77.8369 255.999 77.8369C254.426 77.8369 253.147 77.9774 252.159 78.2539C251.172 78.534 250.461 78.9004 250.033 79.3564C249.602 79.8124 249.387 80.2686 249.387 80.7246C249.387 81.3315 249.627 81.8921 250.108 82.3984C250.59 82.9049 251.413 83.4365 252.58 83.9932C253.744 84.5498 255.468 85.2359 257.748 86.0439C261.649 87.4626 264.716 88.9572 266.946 90.5303C269.177 92.1033 270.771 93.8384 271.733 95.7383C272.696 97.6381 273.178 99.9076 273.178 102.54C273.178 105.988 272.355 109.012 270.706 111.623C269.058 114.234 266.802 116.25 263.943 117.665C261.081 119.084 257.848 119.794 254.253 119.794C250.96 119.794 247.947 119.489 245.21 118.882L245.199 118.875C242.462 118.268 240.055 117.431 237.979 116.368V102.382C240.26 103.7 242.602 104.778 245.009 105.611C247.415 106.448 249.785 106.864 252.116 106.864C253.434 106.864 254.548 106.725 255.46 106.448C256.372 106.172 257.07 105.791 257.551 105.31C258.032 104.828 258.272 104.311 258.272 103.751C258.272 103.043 258.046 102.407 257.59 101.851C257.134 101.294 256.207 100.673 254.817 99.9902C253.424 99.3042 251.333 98.4313 248.546 97.3682C245.759 96.2548 243.364 94.962 241.363 93.4932C239.363 92.0243 237.79 90.3004 236.651 88.3252C235.509 86.3498 234.941 84.0684 234.941 81.4824C234.941 78.0382 235.764 75.0353 237.412 72.4746C239.057 69.9175 241.364 67.942 244.33 66.5449C247.293 65.1515 250.727 64.4551 254.631 64.4551ZM114.465 64.9072C116.695 64.9072 118.976 65.1625 121.307 65.6689C123.637 66.1753 125.792 66.8614 127.768 67.7197V82.1611C125.893 81.1485 123.904 80.351 121.803 79.7656C119.698 79.1838 117.712 78.8936 115.837 78.8936C113.201 78.8936 110.894 79.4494 108.919 80.5664C106.944 81.6798 105.411 83.2139 104.322 85.1641C103.23 87.1142 102.688 89.3338 102.688 91.8154C102.688 94.4515 103.219 96.8079 104.282 98.8838C105.345 100.963 106.84 102.583 108.769 103.747C110.694 104.914 112.899 105.496 115.381 105.496C117.356 105.496 119.446 105.219 121.651 104.659C123.857 104.102 125.893 103.291 127.771 102.228V116.67C125.897 117.532 123.716 118.214 121.234 118.721C118.753 119.227 116.343 119.481 114.016 119.481C108.898 119.481 104.326 118.278 100.296 115.872H100.292C96.2623 113.466 93.1201 110.161 90.8682 105.952C88.6126 101.746 87.4844 97.034 87.4844 91.8154C87.4844 86.597 88.6227 82.1757 90.9033 78.0957C93.184 74.0192 96.3633 70.7975 100.443 68.4414C104.52 66.0855 109.196 64.9072 114.465 64.9072ZM27.0596 63.8438C29.2899 63.8438 31.5705 64.0991 33.9014 64.6055C36.2322 65.1119 38.387 65.7979 40.3623 66.6562V81.0986C38.4876 80.0859 36.4984 79.2876 34.3975 78.7021C32.2929 78.1203 30.3064 77.8301 28.4316 77.8301C25.7954 77.8301 23.489 78.3869 21.5137 79.5039C19.5386 80.6172 18.0052 82.1506 16.917 84.1006C15.8252 86.0507 15.2823 88.2703 15.2822 90.752C15.2822 93.388 15.814 95.7445 16.877 97.8203C17.9401 99.8998 19.4346 101.52 21.3633 102.684C23.2884 103.851 25.4938 104.433 27.9756 104.433C29.9509 104.433 32.041 104.156 34.2461 103.596C36.4513 103.039 38.4878 102.227 40.3662 101.164V115.606C38.4914 116.468 36.3108 117.151 33.8291 117.657C31.3475 118.164 28.9376 118.418 26.6104 118.418C21.4924 118.418 16.9204 117.215 12.8906 114.809H12.8867C8.8571 112.402 5.71476 109.098 3.46289 104.889C1.20739 100.683 0.0791016 95.9705 0.0791016 90.752C0.0791631 85.5335 1.21842 81.1122 3.49902 77.0322C5.77967 72.9524 8.95816 69.7339 13.0381 67.3779C17.1145 65.022 21.7908 63.8438 27.0596 63.8438ZM176.412 79.6543H162.427V118.418H147.759V79.6543H133.697V65.9736H176.412V79.6543ZM102.505 2.13379C102.605 4.00839 102.72 5.90814 102.846 7.83301C102.971 9.75799 103.087 11.6834 103.188 13.6084C103.389 17.3077 103.604 20.9679 103.834 24.5918C104.06 28.2156 104.301 31.6993 104.556 35.043C104.656 36.5119 104.998 37.7806 105.583 38.8438C106.165 39.9067 106.952 40.7178 107.939 41.2744C108.927 41.831 110.055 42.1113 111.322 42.1113C112.59 42.1113 113.718 41.8347 114.706 41.2744C115.693 40.7178 116.48 39.9065 117.062 38.8438C117.643 37.7806 117.985 36.5119 118.089 35.043C118.34 31.6993 118.584 28.2156 118.811 24.5918C119.037 20.9715 119.252 17.3077 119.457 13.6084C119.558 11.6834 119.673 9.758 119.799 7.83301C119.925 5.90814 120.039 4.00839 120.14 2.13379H134.732C134.528 5.07155 134.341 7.99851 134.161 10.9111C133.982 13.8239 133.82 16.7515 133.666 19.6895C133.461 22.6272 133.274 25.5542 133.095 28.4668C132.915 31.3796 132.728 34.3072 132.523 37.2451C132.118 43.1245 130.017 47.7612 126.217 51.1553C122.417 54.5493 117.449 56.248 111.318 56.248C107.264 56.248 103.679 55.476 100.565 53.9316L100.572 53.9277C97.455 52.3834 94.9985 50.1778 93.1992 47.3154C91.3999 44.453 90.3725 41.0951 90.1211 37.2451C89.9164 34.3072 89.7294 31.3796 89.5498 28.4668C89.3702 25.5542 89.2091 22.6272 89.0547 19.6895C88.85 16.7515 88.663 13.8239 88.4834 10.9111C88.3038 7.99851 88.1168 5.07155 87.9121 2.13379H102.505ZM164.464 0.606445C167.908 0.606464 171.166 1.01254 174.229 1.82422C177.293 2.63591 180.019 3.74932 182.4 5.16797V19.459C179.919 17.8392 177.192 16.5216 174.229 15.5088C171.266 14.496 168.465 13.9893 165.832 13.9893C164.259 13.9893 162.98 14.1297 161.992 14.4062C161.005 14.6864 160.294 15.0528 159.863 15.5088C159.432 15.9649 159.216 16.4208 159.216 16.877C159.216 17.4839 159.457 18.0444 159.938 18.5508C160.42 19.0571 161.242 19.5889 162.409 20.1455C163.573 20.7022 165.297 21.3882 167.577 22.1963C171.477 23.6149 174.545 25.1086 176.775 26.6816C179.006 28.2512 180.601 29.9897 181.563 31.8896C182.526 33.7896 183.007 36.0598 183.007 38.6924C183.007 42.1402 182.185 45.1644 180.536 47.7754C178.888 50.3864 176.632 52.4013 173.773 53.8164C170.911 55.2351 167.678 55.9463 164.083 55.9463C160.79 55.9463 157.776 55.6412 155.039 55.0342L155.032 55.0303C152.295 54.4233 149.888 53.5865 147.812 52.5234V38.5381C150.093 39.8562 152.436 40.9334 154.846 41.7666C157.252 42.6034 159.622 43.0205 161.953 43.0205C163.271 43.0205 164.385 42.8801 165.297 42.6035C166.209 42.327 166.905 41.946 167.387 41.4648C167.868 40.9836 168.109 40.4665 168.109 39.9062C168.109 39.1987 167.883 38.5626 167.427 38.0059C166.971 37.4493 166.044 36.8284 164.654 36.1426C163.261 35.4602 161.17 34.5836 158.383 33.5205C155.596 32.4071 153.201 31.1135 151.2 29.6445C149.196 28.1756 147.626 26.4519 146.487 24.4766C145.349 22.5013 144.778 20.2206 144.778 17.6348C144.778 14.1904 145.6 11.1878 147.249 8.62695C148.894 6.06974 151.2 4.0944 154.167 2.69727C157.13 1.30384 160.564 0.606445 164.464 0.606445ZM228.911 15.0527H210.062V21.208H226.781V34.1309H210.062V41.6553H228.911V54.5781H195.771V2.12988H228.911V15.0527ZM17.1074 0C21.4136 4.87933e-05 25.2134 0.772069 28.5068 2.31641C31.8003 3.86438 34.3471 6.00149 36.1465 8.73828C37.9457 11.4749 38.8437 14.5889 38.8438 18.0869C38.8438 21.9371 37.9559 25.3355 36.1816 28.2734C34.4074 31.2111 31.8754 33.4806 28.582 35.0752C25.2886 36.6699 21.4637 37.4707 17.1035 37.4707H14.4424V52.4443H0V26.1826L0.00390625 26.1865V0H17.1074ZM14.4424 24.2471H16.3418C17.8609 24.2471 19.2185 23.9953 20.4072 23.4854C21.596 22.9789 22.5088 22.2567 23.1445 21.3193C23.7765 20.382 24.0967 19.3047 24.0967 18.0908C24.0967 17.0278 23.8164 16.0651 23.2598 15.2031C22.7031 14.3412 21.8911 13.6697 20.8281 13.1885C19.765 12.7072 18.5222 12.4668 17.1035 12.4668H14.4424V24.2471Z" fill="url(#paint0_linear_641_431)"/>
<defs>
<linearGradient id="paint0_linear_641_431" x1="136.589" y1="0" x2="136.589" y2="120.24" gradientUnits="userSpaceOnUse">
<stop stop-color="white" stop-opacity="0.7"/>
<stop offset="1" stop-color="white" stop-opacity="0"/>
</linearGradient>
</defs>
</svg>
