<svg width="278" height="350" viewBox="0 0 278 350" fill="none" xmlns="http://www.w3.org/2000/svg">
<g clip-path="url(#clip0_1057_4977)">
<path d="M115.461 280.865C115.461 280.865 15.178 248.588 68.036 140.16C114.622 44.5908 242.605 86.7626 261.934 124.874C281.613 163.685 297.888 280.515 217.283 278.461C217.283 278.461 219.009 304.086 206.861 315.125C191.729 328.871 158.783 327.447 145.376 322.616C137.518 319.793 125.207 316.805 123.482 308.614L115.438 280.865H115.461Z" fill="white"/>
<mask id="mask0_1057_4977" style="mask-type:luminance" maskUnits="userSpaceOnUse" x="52" y="81" width="227" height="246">
<path d="M115.461 280.865C115.461 280.865 15.178 248.588 68.036 140.16C114.622 44.5908 242.605 86.7626 261.934 124.874C281.613 163.685 297.888 280.515 217.283 278.461C217.283 278.461 219.009 304.086 206.861 315.125C191.729 328.871 158.783 327.447 145.376 322.616C137.518 319.793 125.207 316.805 123.482 308.614L115.438 280.865H115.461Z" fill="white"/>
</mask>
<g mask="url(#mask0_1057_4977)">
<path d="M107.836 270.41C107.836 270.41 119.074 280.025 123.341 279.721C127.608 279.418 221.456 290.177 242.627 271.67C263.799 253.163 246.195 333.165 219.661 336.129C193.127 339.093 122.758 345.978 119.168 325.09C115.6 304.203 107.836 270.433 107.836 270.433V270.41Z" fill="white"/>
<path d="M139.127 294.355C139.127 294.355 176.689 307.798 193.687 295.545C210.685 283.316 177.296 299.723 139.127 294.355Z" fill="white"/>
<path d="M144.885 309.336C127.887 297.107 161.276 313.514 199.445 308.146C199.445 308.146 161.883 321.589 144.885 309.336Z" fill="white"/>
</g>
<path d="M64.9592 129.074C28.3759 129.074 8.27728 87.5795 6.10886 82.8419L0 69.5392L9.30319 58.2436C14.2462 52.2457 21.451 48.9551 29.635 48.9551C41.8527 48.9551 57.0083 57.2867 67.5706 64.2648C86.6899 76.8907 95.4568 88.1629 96.0164 100.789C96.5527 113.135 88.3454 127.207 69.0162 128.888C67.6638 129.004 66.2882 129.074 64.9358 129.074H64.9592Z" fill="white"/>
<path d="M91.0034 85.1285C75.4282 85.1285 66.3348 71.149 59.713 60.927C51.5523 48.3478 26.6971 10.0735 46.5393 -14.9915C51.086 -20.7327 57.8943 -24 65.2156 -24C85.221 -24 97.8817 2.27859 98.418 3.39881C103.081 13.2708 107.791 25.3365 111.032 35.6986C116.208 52.2219 117.957 63.7275 111.615 73.7629C107.115 80.881 99.4206 85.1285 91.0267 85.1285H91.0034Z" fill="white"/>
<path d="M139.897 99.0607C132.016 99.0607 124.694 95.4433 119.821 89.1653C112.43 79.6434 111.754 66.6908 117.443 44.4964C121.127 30.1435 125.697 12.2666 144 6.31544L147.521 5.17188H151.345C158.27 5.17188 164.892 8.20581 169.485 13.5035C180.071 25.7327 177.086 50.0975 177.063 50.3309C173.799 72.8287 162.117 99.084 139.92 99.084L139.897 99.0607Z" fill="white"/>
<path d="M130.968 267.374C130.968 267.374 33.6688 244.713 81.0708 147.51C122.854 61.8364 230.738 107.275 248.062 141.442C265.712 176.216 270.585 271.365 198.352 269.521C198.352 269.521 205.323 293.163 194.435 303.058C180.864 315.38 161.908 311.693 149.9 307.352C142.859 304.808 137.659 298.764 136.097 291.436L130.991 267.374H130.968Z" fill="#E5DEFF"/>
<mask id="mask1_1057_4977" style="mask-type:luminance" maskUnits="userSpaceOnUse" x="68" y="98" width="192" height="214">
<path d="M130.968 267.374C130.968 267.374 33.6688 244.713 81.0708 147.51C122.854 61.8364 230.738 107.275 248.062 141.442C265.712 176.216 270.585 271.365 198.352 269.521C198.352 269.521 205.323 293.163 194.435 303.058C180.864 315.38 161.908 311.693 149.9 307.352C142.859 304.808 137.659 298.764 136.097 291.436L130.991 267.374H130.968Z" fill="white"/>
</mask>
<g mask="url(#mask1_1057_4977)">
<path d="M113.598 261.003C113.598 261.003 123.67 269.638 127.494 269.335C131.318 269.031 215.443 278.693 234.422 262.1C253.402 245.507 237.64 317.224 213.834 319.885C190.028 322.545 126.958 328.707 123.74 309.99C120.522 291.273 113.574 260.98 113.574 260.98L113.598 261.003Z" fill="#694EC8"/>
<path d="M141.67 282.45C141.67 282.45 175.362 294.493 190.587 283.524C205.813 272.555 175.875 287.281 141.67 282.45Z" fill="#E5DEFF"/>
<path d="M146.823 295.893C131.574 284.924 161.535 299.651 195.74 294.82C195.74 294.82 162.048 306.862 146.823 295.893Z" fill="#E5DEFF"/>
</g>
<path d="M24.459 79.8077C24.459 79.8077 40.3374 114.418 64.1899 112.341C88.0425 110.264 29.9616 73.133 24.459 79.8077Z" fill="#6FD59B"/>
<path d="M74.448 20.062C71.5568 13.9708 63.1629 4.63562 61.9505 6.19926C58.4764 10.5868 55.5618 22.8159 76.4066 54.9057C99.7228 90.8229 87.2486 47.1341 74.4713 20.0854L74.448 20.062Z" fill="#6FD59B"/>
<path d="M151.113 53.6692C152.069 46.9945 150.227 34.5787 148.339 35.1855C142.999 36.9125 140.714 43.0738 137.17 56.9832C126.538 98.4782 146.823 83.3085 151.113 53.6692Z" fill="#6FD59B"/>
<path d="M141.67 221.189C141.67 221.189 155.263 254.913 163.284 240.187C171.305 225.46 165.965 199.789 171.841 208.61C177.717 217.432 167.574 236.709 180.935 238.576C189.212 239.743 190.914 232.952 192.196 227.864C192.896 225.064 197.536 226.464 199.681 228.401C204.041 232.298 204.461 239.907 193.525 244.994C182.03 250.339 168.927 238.039 166.525 249.802C164.124 261.564 169.743 269.336 169.743 269.336" stroke="#694EC8" stroke-miterlimit="10"/>
</g>
<defs>
<clipPath id="clip0_1057_4977">
<rect width="278" height="350" fill="white"/>
</clipPath>
</defs>
</svg>
