<svg width="98" height="48" viewBox="0 0 98 48" fill="none" xmlns="http://www.w3.org/2000/svg">
<path d="M40.5123 27.0814C38.5167 27.0814 36.683 26.6739 35.0611 25.8693C33.3135 25.0031 31.9106 23.7399 30.8895 22.1145C29.9161 20.566 29.3561 18.7765 29.2246 16.7972C29.1582 15.8402 29.0953 14.8727 29.0383 13.9191C28.9824 13.0051 28.9288 12.0469 28.8776 11.0724C28.8124 10.127 28.7507 9.16999 28.6936 8.22808C28.6366 7.29665 28.5749 6.35009 28.5109 5.4175C28.427 4.19383 28.8543 2.99112 29.6903 2.09462C30.5274 1.19812 31.6987 0.689331 32.9247 0.689331H37.6552C38.7414 0.689331 39.7404 1.0817 40.5135 1.73602C41.2866 1.0817 42.2855 0.689331 43.3718 0.689331H48.1023C49.3283 0.689331 50.4996 1.19812 51.3367 2.09462C52.1738 2.99112 52.5999 4.195 52.5161 5.41866C52.4509 6.3594 52.3904 7.30364 52.3333 8.22692C52.2774 9.13622 52.225 10.0793 52.175 11.0328C52.1738 11.0585 52.1726 11.0841 52.1703 11.1097C52.1051 12.0481 52.0446 12.9935 51.9875 13.9191C51.9293 14.875 51.8664 15.8437 51.8001 16.7996C51.5893 19.8465 50.375 22.4417 48.2886 24.3045C46.2278 26.1464 43.6116 27.0802 40.5123 27.0802V27.0814Z" fill="white"/>
<path d="M57.611 26.9823C56.2255 26.9823 54.9157 26.8473 53.7188 26.5818C52.4684 26.3036 51.3251 25.9019 50.3203 25.3873C48.8428 24.6305 47.9125 23.1099 47.9125 21.4496V16.9159C47.9125 16.2453 48.0651 15.5956 48.3445 15.01C48.2502 14.8656 48.1605 14.7189 48.0732 14.5687C47.3129 13.2496 46.9264 11.7605 46.9264 10.1398C46.9264 8.16515 47.4329 6.37681 48.4307 4.82598C49.418 3.29261 50.7907 2.10388 52.5103 1.2947C54.0611 0.565856 55.818 0.196777 57.7321 0.196777C59.2236 0.196777 60.6696 0.378406 62.0283 0.73817C63.4162 1.10608 64.6876 1.63001 65.8099 2.29831C67.15 3.09585 67.9709 4.54073 67.9709 6.09971V10.7324C67.9709 11.5486 67.7462 12.3321 67.341 13.0074C67.8894 14.188 68.1676 15.5176 68.1676 16.9671C68.1676 18.9266 67.6681 20.7127 66.6843 22.2716C65.7121 23.812 64.3767 25.01 62.7141 25.8343C61.1738 26.597 59.4564 26.9835 57.6087 26.9835L57.611 26.9823Z" fill="white"/>
<path d="M67.8847 26.5399C65.4409 26.5399 63.4604 24.5595 63.4604 22.1156V5.11472C63.4604 2.67088 65.4409 0.69043 67.8847 0.69043H78.6276C81.0714 0.69043 83.0519 2.67088 83.0519 5.11472V9.30382C83.0519 10.177 82.7992 10.992 82.3615 11.6778V15.4885C82.3615 15.5106 82.3615 15.5316 82.3615 15.5537C82.7981 16.2395 83.0519 17.0545 83.0519 17.9277V22.1168C83.0519 24.5606 81.0714 26.5411 78.6276 26.5411H67.8847V26.5399Z" fill="white"/>
<path d="M41.382 47.5809C38.9196 47.5809 36.6597 46.9766 34.6653 45.7844C32.6674 44.591 31.0909 42.9342 29.9802 40.8607C28.9044 38.8558 28.3595 36.6098 28.3595 34.1881C28.3595 31.7664 28.9218 29.5659 30.0302 27.582C31.1608 25.5596 32.7558 23.9447 34.7712 22.7805C36.768 21.6267 39.0418 21.041 41.5299 21.041C42.5626 21.041 43.6244 21.1574 44.6851 21.388C45.7237 21.6138 46.7063 21.927 47.6086 22.3206C49.2223 23.0238 50.2655 24.6165 50.2655 26.3769V31.0585C50.2655 32.3078 49.7393 33.4826 48.8404 34.3104C49.7381 35.1382 50.2655 36.313 50.2655 37.5622V42.2438C50.2655 43.9716 49.2596 45.5422 47.689 46.2641C46.7762 46.6832 45.7388 47.0139 44.6059 47.2444C43.5127 47.4668 42.4276 47.5797 41.3809 47.5797L41.382 47.5809Z" fill="white"/>
<path d="M52.3217 47.2362C49.8779 47.2362 47.8974 45.2557 47.8974 42.8119V34.6701H47.7635C45.3197 34.6701 43.3392 32.6896 43.3392 30.2458V25.811C43.3392 23.3672 45.3197 21.3867 47.7635 21.3867H61.6104C64.0542 21.3867 66.0347 23.3672 66.0347 25.811V30.2458C66.0347 32.6896 64.0542 34.6701 61.6104 34.6701H61.5009V42.8119C61.5009 45.2557 59.5205 47.2362 57.0766 47.2362H52.3217Z" fill="white"/>
<path d="M71.0224 47.7776C69.0269 47.7776 67.1931 47.3701 65.5713 46.5656C63.8237 45.6993 62.4195 44.4361 61.3996 42.8108C60.4263 41.2623 59.8651 39.4716 59.7347 37.4911C59.6695 36.5469 59.6066 35.5794 59.5484 34.6153C59.4925 33.7025 59.439 32.7443 59.3877 31.7675C59.3237 30.8326 59.2608 29.8755 59.2038 28.9231C59.1467 27.9859 59.085 27.0393 59.021 26.1126C58.9372 24.8889 59.3645 23.6862 60.2004 22.7897C61.0364 21.8932 62.2088 21.3844 63.4348 21.3844H68.1653C69.2516 21.3844 70.2505 21.7768 71.0236 22.4311C71.7967 21.7768 72.7957 21.3844 73.8819 21.3844H78.6124C79.8384 21.3844 81.0097 21.8932 81.8468 22.7897C82.6839 23.6862 83.1112 24.8901 83.0262 26.1137C82.9622 27.0417 82.9005 27.9859 82.8434 28.9231C82.7887 29.8185 82.7352 30.7627 82.6851 31.7291C82.6839 31.7547 82.6828 31.7791 82.6804 31.8048C82.6152 32.7467 82.5547 33.6921 82.4976 34.6142C82.4394 35.577 82.3766 36.5457 82.3102 37.4946C82.0995 40.5416 80.8851 43.1356 78.7987 44.9996C76.7379 46.8415 74.1206 47.7753 71.0224 47.7753V47.7776Z" fill="white"/>
<path d="M86.8405 47.6787C85.455 47.6787 84.1463 47.5437 82.9483 47.2771C81.6978 47 80.5545 46.5971 79.5497 46.0825C78.0722 45.3257 77.1431 43.8052 77.1431 42.1449V37.6112C77.1431 36.9405 77.2957 36.2909 77.5751 35.7052C77.4808 35.5609 77.39 35.413 77.3038 35.264C76.5435 33.946 76.157 32.4557 76.157 30.8362C76.157 28.8616 76.6635 27.0732 77.6612 25.5224C78.6486 23.9879 80.0212 22.8003 81.7409 21.9911C83.2917 21.2623 85.0486 20.8932 86.9627 20.8932C88.4542 20.8932 89.9002 21.0748 91.2589 21.4346C92.6468 21.8025 93.9182 22.3264 95.0405 22.9947C96.3806 23.7923 97.2014 25.2371 97.2014 26.7961V31.4288C97.2014 32.245 96.9767 33.0285 96.5716 33.7038C97.1199 34.8856 97.3982 36.2152 97.3982 37.6624C97.3982 39.6231 96.8987 41.4079 95.9149 42.968C94.9427 44.5084 93.6073 45.7064 91.9447 46.5308C90.4044 47.2934 88.6859 47.6811 86.8393 47.6811L86.8405 47.6787Z" fill="white"/>
<path d="M4.42429 25.8495C1.98045 25.8495 0 23.869 0 21.4252V4.42429C0 1.98045 1.98045 0 4.42429 0H9.96861C12.0119 0 13.8876 0.393529 15.5432 1.17011C17.3583 2.02236 18.8021 3.25185 19.8371 4.82713C20.9001 6.44549 21.4392 8.28273 21.4392 10.2888C21.4392 12.2949 20.935 14.2287 19.9407 15.8762C18.9185 17.5702 17.4643 18.8824 15.6189 19.7766C14.9576 20.0967 14.2613 20.354 13.5302 20.5485V21.4252C13.5302 23.869 11.5497 25.8495 9.10588 25.8495H4.42429Z" fill="white"/>
<path d="M13.048 47.2362C10.5855 47.2362 8.32565 46.632 6.33123 45.4397C4.33331 44.2464 2.75687 42.5896 1.64614 40.516C0.570342 38.5099 0.024292 36.2652 0.024292 33.8435C0.024292 31.4217 0.586642 29.2212 1.69504 27.2373C2.82556 25.2149 4.42064 23.6001 6.43718 22.4358C8.43393 21.282 10.7078 20.6975 13.1959 20.6975C14.2286 20.6975 15.2904 20.8139 16.3511 21.0445C17.3884 21.2703 18.3711 21.5835 19.2746 21.9771C20.8883 22.6803 21.9327 24.273 21.9327 26.0334V30.715C21.9327 31.9643 21.4064 33.1391 20.5076 33.9669C21.4052 34.7947 21.9327 35.9694 21.9327 37.2187V41.9003C21.9327 43.6281 20.9267 45.1987 19.3561 45.9206C18.4433 46.3397 17.4059 46.6704 16.2731 46.9009C15.1798 47.1233 14.0947 47.2362 13.048 47.2362Z" fill="white"/>
<path d="M21.0071 48C18.9987 48 17.1429 46.781 16.2801 44.8961C15.4628 43.11 15.6561 41.2472 15.783 40.0154C15.8051 39.8011 15.8307 39.5578 15.8342 39.446C15.8854 38.1094 15.932 36.7519 15.9739 35.4106C16.0356 33.4407 16.088 31.4497 16.1299 29.4681C14.2671 28.6356 12.7454 27.0045 11.9036 24.8715C11.2062 23.1018 11.1002 21.3635 11.0152 19.9675L11.0106 19.8953C10.9267 18.5203 10.8115 16.6365 11.5974 14.6852C12.6639 12.0387 15.1682 10.2609 17.8286 10.2609C18.1197 7.79609 18.7181 4.79224 20.5251 2.53003C21.6044 1.17829 23.1587 0.35165 24.7887 0.260836C24.8889 0.255014 24.9913 0.252686 25.0914 0.252686C26.4688 0.252686 27.838 0.776614 28.9464 1.72784C31.2552 3.71061 31.6056 6.56544 31.8164 8.27112C31.8292 8.37358 31.8408 8.47371 31.8536 8.57151C32.1354 10.772 32.1913 12.9026 32.2076 14.6957C32.2099 14.9029 32.2111 15.1113 32.2122 15.3185C34.7958 15.5572 37.1092 17.377 38.0814 19.9978C38.9534 22.3497 38.575 24.6678 38.3713 25.9135C38.1373 27.341 37.8159 29.0012 36.9509 30.6394C36.0509 32.3427 34.7189 33.6584 33.1588 34.4268C33.196 34.8122 33.2356 35.2022 33.2764 35.6004C33.3381 36.2047 33.3986 36.8089 33.4557 37.4132C33.4859 37.7322 33.5535 38.163 33.6257 38.6182C33.8562 40.0747 34.1438 41.8864 33.7945 43.7003C33.4475 45.5015 32.2611 46.9662 30.6183 47.6182C30.028 47.8522 29.4075 47.9709 28.7729 47.9709C27.2756 47.9709 25.8634 47.3131 24.8702 46.1977C24.025 47.1839 22.8467 47.8347 21.5229 47.9721C21.3518 47.9896 21.1783 47.9989 21.006 47.9989L21.0071 48Z" fill="white"/>
<path d="M36.9764 21.7756C35.9658 21.275 35.1695 20.5601 34.5861 19.6322C34.0028 18.7043 33.6698 17.6156 33.5883 16.3675C33.522 15.4151 33.4614 14.4663 33.4032 13.522C33.345 12.5778 33.2926 11.6289 33.2426 10.6765C33.1762 9.72412 33.1156 8.77522 33.0574 7.83099C32.9992 6.88675 32.9387 5.93786 32.8723 4.98547H37.6028C37.6354 5.59323 37.6727 6.20914 37.7134 6.83319C37.7542 7.45725 37.7914 8.08131 37.824 8.70537C37.8892 9.90458 37.9591 11.091 38.0336 12.2658C38.1069 13.4405 38.1849 14.5699 38.2676 15.6538C38.3002 16.13 38.4108 16.541 38.6006 16.8856C38.7892 17.2303 39.0442 17.4934 39.3644 17.6739C39.6846 17.8543 40.0501 17.9451 40.4611 17.9451C40.8721 17.9451 41.2377 17.8555 41.5579 17.6739C41.8781 17.4934 42.133 17.2303 42.3217 16.8856C42.5103 16.541 42.6209 16.13 42.6546 15.6538C42.7361 14.5699 42.8153 13.4405 42.8887 12.2658C42.962 11.0922 43.0319 9.90458 43.0982 8.70537C43.1308 8.08131 43.1681 7.45725 43.2088 6.83319C43.2496 6.20914 43.2869 5.59323 43.3195 4.98547H48.0499C47.9836 5.93786 47.923 6.88675 47.8648 7.83099C47.8066 8.77522 47.7542 9.72412 47.7042 10.6765C47.6378 11.6289 47.5772 12.5778 47.519 13.522C47.4608 14.4663 47.4003 15.4151 47.3339 16.3675C47.2023 18.2735 46.5212 19.7766 45.2894 20.8768C44.0576 21.9771 42.4474 22.5278 40.46 22.5278C39.1455 22.5278 37.9835 22.2774 36.9741 21.7768L36.9764 21.7756Z" fill="#694EC8"/>
<path d="M54.6306 22.1331C53.7434 21.9363 52.9633 21.665 52.2903 21.3204V16.7867C53.0297 17.214 53.7888 17.5633 54.57 17.8334C55.3501 18.1047 56.1185 18.2397 56.8741 18.2397C57.3014 18.2397 57.6624 18.1943 57.9581 18.1047C58.2538 18.015 58.4797 17.8916 58.6357 17.7356C58.7917 17.5796 58.8697 17.4119 58.8697 17.2303C58.8697 17.0009 58.7964 16.7948 58.6485 16.6144C58.5006 16.4339 58.2003 16.2325 57.7497 16.0101C57.2979 15.7889 56.6203 15.5048 55.7168 15.1602C54.8133 14.7992 54.0368 14.3801 53.3883 13.9039C52.7386 13.4277 52.2298 12.8689 51.8607 12.2285C51.4916 11.5881 51.3065 10.8488 51.3065 10.0105C51.3065 8.89399 51.5731 7.92065 52.1075 7.09051C52.6408 6.26154 53.3883 5.62118 54.35 5.16828C55.3105 4.71653 56.4236 4.49066 57.688 4.49066C58.8045 4.49066 59.8605 4.62223 60.8537 4.88535C61.8468 5.14848 62.7305 5.50941 63.5024 5.9693V10.602C62.6979 10.0769 61.8142 9.64961 60.8537 9.32128C59.8931 8.99295 58.985 8.82879 58.1316 8.82879C57.6216 8.82879 57.2071 8.8742 56.8869 8.96385C56.5668 9.05466 56.3362 9.17342 56.1965 9.32128C56.0568 9.46915 55.9869 9.61701 55.9869 9.76488C55.9869 9.96164 56.065 10.1433 56.221 10.3074C56.377 10.4716 56.6436 10.6439 57.022 10.8244C57.3992 11.0048 57.9581 11.2272 58.6974 11.4892C59.9618 11.9491 60.9561 12.4334 61.6791 12.9434C62.4022 13.4522 62.9191 14.0157 63.2311 14.6316C63.5432 15.2475 63.6992 15.9833 63.6992 16.8367C63.6992 17.9545 63.4326 18.9348 62.8981 19.7812C62.3637 20.6277 61.6326 21.2808 60.7058 21.7396C59.7779 22.1994 58.73 22.43 57.5646 22.43C56.4969 22.43 55.5201 22.331 54.6329 22.1342L54.6306 22.1331Z" fill="#694EC8"/>
<path d="M67.837 19.1269V4.98431H78.5799V9.17341H72.4697V17.7973H78.5799V21.9864H67.837V19.1281V19.1269ZM70.0294 11.169H77.8895V15.3581H70.0294V11.169Z" fill="#694EC8"/>
<path d="M36.8856 41.8561C35.5793 41.076 34.5605 40.0048 33.8305 38.6403C33.0994 37.2769 32.7338 35.7494 32.7338 34.0577C32.7338 32.366 33.1028 30.9327 33.8422 29.6101C34.5815 28.2886 35.6119 27.2443 36.9345 26.4805C38.256 25.7167 39.7719 25.3348 41.4799 25.3348C42.2029 25.3348 42.9422 25.4175 43.6978 25.5817C44.4535 25.7458 45.152 25.9682 45.7924 26.2465V30.9281C45.1846 30.5997 44.5396 30.3413 43.8585 30.1515C43.1762 29.9629 42.5324 29.8686 41.9246 29.8686C41.0701 29.8686 40.3226 30.049 39.6822 30.4111C39.0419 30.7721 38.5447 31.2692 38.1919 31.9014C37.838 32.5336 37.6622 33.2531 37.6622 34.0577C37.6622 34.9123 37.8345 35.676 38.1791 36.349C38.5238 37.0231 39.0081 37.5482 39.6333 37.9254C40.2574 38.3038 40.9723 38.4924 41.7768 38.4924C42.4171 38.4924 43.0947 38.4028 43.8096 38.2212C44.5245 38.0407 45.1846 37.7776 45.7936 37.4329V42.1145C45.1858 42.394 44.4791 42.6152 43.6746 42.7793C42.87 42.9435 42.0888 43.0262 41.3343 43.0262C39.6752 43.0262 38.1931 42.6361 36.8868 41.8561H36.8856Z" fill="#6FD59B"/>
<path d="M47.7145 25.6807H61.5613V30.1154H47.7145V25.6807ZM52.2727 38.5053V25.9275H57.0276V42.6816H52.2727V38.5053Z" fill="#6FD59B"/>
<path d="M67.4865 42.472C66.4759 41.9713 65.6795 41.2565 65.0962 40.3285C64.5129 39.4006 64.1799 38.312 64.0984 37.0639C64.032 36.1115 63.9715 35.1626 63.9133 34.2184C63.8551 33.2741 63.8027 32.3252 63.7538 31.3729C63.6874 30.4205 63.6269 29.4716 63.5687 28.5273C63.5104 27.5831 63.4499 26.6342 63.3835 25.6818H68.114C68.1466 26.2896 68.1839 26.9055 68.2246 27.5295C68.2654 28.1536 68.3026 28.7777 68.3352 29.4017C68.4004 30.6009 68.4703 31.7873 68.5448 32.9621C68.6182 34.1369 68.6962 35.2662 68.7788 36.3502C68.8114 36.8264 68.922 37.2374 69.1118 37.582C69.3004 37.9266 69.5554 38.1897 69.8756 38.3702C70.1958 38.5507 70.5614 38.6415 70.9724 38.6415C71.3834 38.6415 71.7489 38.5518 72.0691 38.3702C72.3893 38.1897 72.6443 37.9266 72.8329 37.582C73.0215 37.2374 73.1321 36.8264 73.1659 36.3502C73.2485 35.2662 73.3265 34.1369 73.3999 32.9621C73.4732 31.7873 73.5431 30.6009 73.6095 29.4017C73.6421 28.7777 73.6793 28.1536 73.7201 27.5295C73.7608 26.9055 73.7981 26.2896 73.8307 25.6818H78.5612C78.4948 26.6342 78.4343 27.5831 78.376 28.5273C78.3178 29.4716 78.2654 30.4205 78.2154 31.3729C78.1502 32.3252 78.0885 33.2741 78.0303 34.2184C77.972 35.1626 77.9115 36.1115 77.8451 37.0639C77.7136 38.9698 77.0325 40.4729 75.8006 41.5732C74.5688 42.6734 72.9586 43.2241 70.9712 43.2241C69.6567 43.2241 68.4948 42.9738 67.4842 42.4731L67.4865 42.472Z" fill="#6FD59B"/>
<path d="M83.8599 42.8294C82.9727 42.6327 82.1926 42.3614 81.5196 42.0168V37.483C82.259 37.9103 83.0181 38.2596 83.7982 38.5297C84.5782 38.801 85.3467 38.9361 86.1023 38.9361C86.5296 38.9361 86.8905 38.8907 87.1862 38.801C87.482 38.7114 87.7078 38.5879 87.8638 38.4319C88.0199 38.2759 88.0979 38.1082 88.0979 37.9266C88.0979 37.6973 88.0245 37.4912 87.8767 37.3107C87.7288 37.1302 87.4284 36.9288 86.9778 36.7076C86.5261 36.4852 85.8485 36.2023 84.945 35.8577C84.0415 35.4968 83.2649 35.0776 82.6164 34.6014C81.9679 34.1252 81.4579 33.5664 81.0889 32.926C80.7186 32.2857 80.5347 31.5463 80.5347 30.7081C80.5347 29.5915 80.8013 28.6182 81.3357 27.788C81.8689 26.9591 82.6164 26.3187 83.5781 25.8658C84.5386 25.414 85.6517 25.1882 86.9173 25.1882C88.0338 25.1882 89.0898 25.3197 90.083 25.5829C91.0773 25.846 91.9598 26.2069 92.7317 26.6668V31.2995C91.9272 30.7744 91.0435 30.3471 90.083 30.0188C89.1224 29.6905 88.2143 29.5263 87.3609 29.5263C86.8509 29.5263 86.4364 29.5717 86.1163 29.6614C85.7961 29.7522 85.5655 29.8709 85.427 30.0188C85.2873 30.1667 85.2174 30.3145 85.2174 30.4624C85.2174 30.6592 85.2954 30.8408 85.4514 31.0049C85.6075 31.1691 85.8741 31.3414 86.2525 31.5219C86.6297 31.7023 87.1886 31.9247 87.9279 32.1867C89.1923 32.6466 90.1866 33.1309 90.9096 33.6409C91.6326 34.1508 92.1496 34.7132 92.4616 35.3291C92.7736 35.945 92.9296 36.6808 92.9296 37.5343C92.9296 38.652 92.663 39.6323 92.1286 40.4787C91.5942 41.3252 90.863 41.9783 89.9363 42.4371C89.0083 42.897 87.9605 43.1275 86.795 43.1275C85.7274 43.1275 84.7505 43.0285 83.8634 42.8318L83.8599 42.8294Z" fill="#6FD59B"/>
<path d="M4.37531 12.7828V4.29395H9.91964C11.3156 4.29395 12.5474 4.54427 13.6151 5.04491C14.6827 5.54672 15.5082 6.23947 16.0915 7.12665C16.6748 8.01384 16.9659 9.02327 16.9659 10.1573C16.9659 11.4054 16.6783 12.5068 16.1032 13.4592C15.528 14.4116 14.7072 15.1474 13.6395 15.6644C12.5719 16.1813 11.3319 16.4409 9.91847 16.4409H7.35588V12.154H9.67165C10.1641 12.154 10.6042 12.0725 10.9896 11.9072C11.375 11.743 11.6707 11.509 11.8768 11.2051C12.0817 10.9013 12.1853 10.552 12.1853 10.1585C12.1853 9.81382 12.0945 9.50179 11.9141 9.22237C11.7336 8.94294 11.4705 8.72522 11.1258 8.5692C10.7812 8.41319 10.3784 8.33518 9.91847 8.33518H9.05574V21.2948H4.37415V12.7816L4.37531 12.7828Z" fill="#694EC8"/>
<path d="M8.55162 41.5114C7.24529 40.7314 6.22654 39.6602 5.49654 38.2957C4.76537 36.9323 4.39978 35.4048 4.39978 33.7131C4.39978 32.0214 4.76886 30.5881 5.50818 29.2655C6.2475 27.9429 7.27789 26.8997 8.60052 26.1359C9.92199 25.3721 11.4379 24.9902 13.1459 24.9902C13.8689 24.9902 14.6082 25.0729 15.3639 25.2371C16.1195 25.4012 16.8181 25.6236 17.4584 25.9019V30.5835C16.8507 30.2551 16.2056 29.9967 15.5245 29.8069C14.8423 29.6183 14.1984 29.524 13.5907 29.524C12.7361 29.524 11.9886 29.7044 11.3482 30.0665C10.7079 30.4274 10.2107 30.9246 9.85795 31.5568C9.50401 32.189 9.3282 32.9085 9.3282 33.7131C9.3282 34.5676 9.50052 35.3314 9.84514 36.0044C10.1898 36.6785 10.6741 37.2036 11.2993 37.5808C11.9234 37.9592 12.6383 38.1478 13.4428 38.1478C14.0831 38.1478 14.7608 38.0582 15.4756 37.8765C16.1905 37.6961 16.8507 37.433 17.4596 37.0883V41.7699C16.8518 42.0493 16.1451 42.2706 15.3406 42.4347C14.5361 42.5989 13.7548 42.6816 13.0004 42.6816C11.3413 42.6816 9.85912 42.2915 8.55279 41.5114H8.55162Z" fill="#694EC8"/>
<path d="M26.6865 43.2693C28.2932 43.3426 29.5867 42.0072 29.4086 40.4598C28.7042 34.3485 28.2944 30.6973 28.8905 30.128C29.9523 29.1127 31.4181 30.1501 32.8351 29.2547C34.4162 28.2558 35.2615 22.9769 34.5745 21.312C34.1717 20.3352 32.8595 20.1116 32.1109 20.4632C30.6695 21.1385 31.5253 24.1738 30.7335 25.0843C29.9942 25.9342 29.0057 25.6711 28.7333 25.0563C27.4491 22.1538 28.1395 4.72791 25.3732 4.72791C22.4054 4.72791 23.4416 19.93 21.9129 20.6763C21.1876 21.0302 20.8837 20.8067 20.7125 20.717C19.4411 20.0569 20.064 15.9947 19.0301 14.877C18.4317 14.2296 16.4117 14.6488 16.1602 15.6501C15.5897 17.9216 16.6364 22.9292 17.8286 24.0003C19.0208 25.0715 20.4261 24.8735 21.1002 25.7142C21.623 26.3662 22.3018 30.5948 20.8022 40.213C20.5717 41.6951 21.7185 43.0445 23.2658 43.1156L26.6853 43.2716L26.6865 43.2693Z" fill="#6FD59B"/>
</svg>
