<svg width="261" height="350" viewBox="0 0 261 350" fill="none" xmlns="http://www.w3.org/2000/svg">
<g clip-path="url(#clip0_1079_6399)">
<path d="M137.028 315.962C132.707 315.962 128.49 315.133 124.471 313.503C121.049 312.829 111.857 310.321 109.053 302.6C107.739 298.989 107.486 293.2 113.698 286.105C113.874 285.901 114.008 285.733 114.099 285.599C112.876 283.927 108.456 280.998 105.723 279.185C97.9577 274.029 88.2884 267.615 86.623 257.049C84.5922 244.207 88.4571 234.92 90.769 229.377C90.8392 229.201 90.9236 229.012 91.0009 228.815C90.6355 228.562 90.263 228.309 89.9327 228.077C85.1614 224.804 79.2235 220.736 78.2467 214.315C77.9024 212.074 78.071 208.681 80.7835 205.232C86.4824 197.996 100.986 197.434 105.294 197.434C111.344 197.434 122.292 198.326 127.668 204.276C129.924 206.77 130.985 209.938 130.648 213.184C130.121 218.362 127.261 222.907 124.316 226.665C128.104 226.068 132.299 225.457 136.424 225.457C145.658 225.457 152.136 228.674 155.678 235.018C163.064 248.239 169.36 266.835 166.781 278.588C166.043 281.967 163.949 286.955 158.074 289.632C158.974 291.03 159.747 292.589 160.323 294.324C161.693 298.497 160.941 302.881 158.194 306.668C154.048 312.393 145.939 315.955 137.028 315.955V315.962Z" fill="white"/>
<path d="M217.776 349.999C211.044 349.999 207.453 346.957 205.626 344.407C205.022 343.557 204.347 342.693 203.644 341.766C199.105 335.858 191.509 325.98 199.569 313.56C204.115 306.556 209.161 287.511 210.728 280.766L210.847 280.232L211.051 279.727C211.114 279.565 211.184 279.326 211.269 279.059C211.908 277.085 213.103 273.411 215.886 270.13C219.498 265.873 224.627 263.625 230.713 263.625C231.619 263.625 232.561 263.674 233.51 263.773C243.832 264.84 252.448 269.224 257.142 275.8C260.711 280.794 261.829 286.731 260.381 292.955C259.671 296.011 259.763 301.266 259.854 306.352C260.086 319.58 260.374 336.047 247.43 341.07C245.94 341.646 244.394 342.272 242.82 342.897C234.128 346.388 225.133 349.992 217.769 349.992L217.776 349.999Z" fill="white"/>
<path d="M207.727 335.309C206.188 335.309 204.607 335.127 203.04 334.775C198.086 333.651 193.596 333.131 188.909 333.131C185.479 333.131 182.324 333.398 178.979 333.686C175.466 333.988 171.833 334.298 167.764 334.298C165.08 334.298 162.501 334.164 159.873 333.89C141.342 331.944 123.325 316.39 118.933 310.229C118.279 309.309 116.284 306.506 117.099 302.994C118.181 298.336 122.643 297.226 125.046 296.629C126.895 296.165 129.312 295.68 132.116 295.118C137.316 294.072 143.795 292.779 149.381 291.072C155.579 289.182 157.877 287.637 158.636 286.983C158.158 277.183 150.646 231.878 145.46 202.407C142.951 195.923 141.089 183.749 148.756 175.375C153.176 170.541 159.022 167.773 164.785 167.773C172.486 167.773 178.08 172.761 178.08 179.639C178.08 184.676 178.08 193.057 180.863 198.818C182.029 199.878 186.54 201.368 189.562 202.365C197.854 205.105 208.17 208.512 213.707 217.497C226.152 237.702 226.349 255.461 226.489 268.423C226.588 277.38 226.778 282.571 229.518 285.009C237.199 291.852 233.777 307.981 230.895 315.547C226.11 328.108 217.678 335.316 207.748 335.316L207.727 335.309Z" fill="white"/>
<path d="M166.155 324.414C160.738 324.414 154.961 322.433 149.466 318.682C147.407 317.277 144.301 315.155 119.629 266.963C107.55 243.372 92.5327 212.932 83.1093 192.946C81.3034 189.117 77.4033 186.377 72.6741 185.626C50.7074 182.127 32.0786 170.5 18.7975 151.989C6.67573 135.094 0 113.477 0 91.1232C0 66.7249 9.89414 43.8369 27.8554 26.6604C45.8377 9.4699 69.9125 0 95.6316 0C96.0954 0 96.5662 0 97.03 0.00702515C122.089 0.344232 145.419 9.71579 162.719 26.4005C179.943 43.008 189.633 65.2707 190.005 89.0789C190.413 114.847 175.389 149.46 156.374 166.847C156.823 167.704 157.554 168.864 158.095 169.714C159.585 172.067 161.279 174.73 162.291 177.898C168.741 198.025 176.05 227.847 181.348 255.723C190.35 303.037 187.286 309.008 186.133 311.256C181.777 319.743 174.679 324.414 166.148 324.414H166.155Z" fill="white"/>
<path d="M89.7434 167.17C47.9885 167.17 14.0195 135.325 14.0195 96.188C14.0195 57.0509 47.9885 25.2129 89.7434 25.2129C131.498 25.2129 165.467 57.0579 165.467 96.195C165.467 135.332 131.498 167.177 89.7434 167.177V167.17Z" fill="white"/>
<path d="M89.0334 155.993C124.509 155.993 153.268 129.217 153.268 96.1879C153.268 63.1585 124.509 36.3828 89.0334 36.3828C53.5576 36.3828 24.7988 63.1585 24.7988 96.1879C24.7988 129.217 53.5576 155.993 89.0334 155.993Z" fill="white"/>
<mask id="mask0_1079_6399" style="mask-type:luminance" maskUnits="userSpaceOnUse" x="24" y="36" width="130" height="120">
<path d="M89.0334 155.993C124.509 155.993 153.268 129.217 153.268 96.1879C153.268 63.1585 124.509 36.3828 89.0334 36.3828C53.5576 36.3828 24.7988 63.1585 24.7988 96.1879C24.7988 129.217 53.5576 155.993 89.0334 155.993Z" fill="white"/>
</mask>
<g mask="url(#mask0_1079_6399)">
<path d="M26.5354 147.64C25.657 147.64 17.9624 147.338 17.7726 137.032C17.6461 130.232 21.2651 116.743 53.9481 78.3088C72.6331 56.3342 93.9111 34.3103 104.979 23.0911C107.389 20.5129 109.757 18.1384 112.006 16.0449L121.731 26.1892C121.731 26.1892 119.209 28.6832 115.119 32.821C97.769 51.4236 78.4445 80.8379 62.9146 104.478C39.5706 140.011 33.8646 147.64 26.5284 147.64H26.5354Z" fill="white"/>
<path d="M48.5793 170.649C42.4798 170.649 40.5263 164.424 39.0998 159.886C38.13 156.802 37.3711 153.767 37.336 153.641L36.7246 151.182L37.8208 148.899C37.9684 148.583 53.0556 117.145 69.2249 85.9324C78.7536 67.5336 86.8067 52.7878 93.1591 42.1025C104.606 22.8325 109.04 18.9687 113.629 18.3083C114.943 18.1187 116.089 18.0273 117.129 18.0273C123.629 18.0273 125.695 21.9755 126.285 23.6756C127.627 27.5394 125.983 31.5929 121.542 35.4708C118.407 40.7959 103.847 65.6017 89.3575 91.7001C58.8318 146.672 56.6183 156.893 56.4918 158.432C56.4918 160.715 56.3723 162.401 56.1334 163.715C55.1848 168.836 51.4745 170.649 48.5863 170.649H48.5793Z" fill="white"/>
</g>
<path d="M214.889 282.334C215.859 279.756 217.468 269.45 229.07 270.735C240.671 272.021 250.98 279.433 248.408 291.354C245.836 303.276 251.95 329.691 240.355 334.524C228.76 339.357 213.61 347.092 209.099 340.32C204.587 333.547 197.82 326.972 203.617 317.375C209.415 307.779 214.896 282.327 214.896 282.327L214.889 282.334Z" fill="#E5DEFF"/>
<path d="M154.034 200.393C154.034 200.393 149.016 187.776 155.608 180.042C162.199 172.307 171.545 173.761 171.545 179.557C171.545 185.353 171.545 194.858 174.932 202.108C178.319 209.357 198.719 208.929 205.711 221.118C224.564 253.981 210.545 279.595 221.662 290.224C227.762 296.055 220.693 332.27 202.809 327.921C184.925 323.572 177.082 328.616 161.827 326.902C144.842 324.991 127.183 306.81 127.668 304.562C128.16 302.3 166.556 298.921 166.556 287.807C166.556 276.694 154.041 200.393 154.041 200.393H154.034Z" fill="#694EC8"/>
<path d="M152.825 156.794C169.163 141.276 179.247 119.231 178.889 94.8396C178.228 49.7663 141.448 13.0107 96.3695 12.3644C49.5481 11.69 11.377 49.4361 11.377 96.0901C11.377 137.489 41.4318 171.87 80.924 178.622C87.3819 179.725 92.9052 183.89 95.5404 189.89C111.639 226.554 150.064 309.156 155.137 312.872C164.617 319.82 174.476 319.153 179.788 308.039C183.681 299.904 160.393 219.051 147.618 176.268C145.545 169.313 147.569 161.803 152.832 156.801L152.825 156.794Z" fill="#6FD59B"/>
<path d="M95.7996 160.076C131.147 160.076 159.802 131.429 159.802 96.0905C159.802 60.7526 131.147 32.1055 95.7996 32.1055C60.4519 32.1055 31.7969 60.7526 31.7969 96.0905C31.7969 131.429 60.4519 160.076 95.7996 160.076Z" fill="#207143"/>
<path d="M95.1387 155.922C128.193 155.922 154.988 129.134 154.988 96.0891C154.988 63.0441 128.193 36.2559 95.1387 36.2559C62.0847 36.2559 35.2891 63.0441 35.2891 96.0891C35.2891 129.134 62.0847 155.922 95.1387 155.922Z" fill="white"/>
<mask id="mask1_1079_6399" style="mask-type:luminance" maskUnits="userSpaceOnUse" x="35" y="36" width="120" height="120">
<path d="M95.1387 155.922C128.193 155.922 154.988 129.134 154.988 96.0891C154.988 63.0441 128.193 36.2559 95.1387 36.2559C62.0847 36.2559 35.2891 63.0441 35.2891 96.0891C35.2891 129.134 62.0847 155.922 95.1387 155.922Z" fill="white"/>
</mask>
<g mask="url(#mask1_1079_6399)">
<path d="M120.998 21.0469C120.998 21.0469 34.874 112.332 35.2886 136.814C35.7032 161.297 84.0495 57.9921 120.998 21.0469Z" fill="#E1FDC0"/>
<path d="M53.3273 151.849C53.3273 151.849 109.221 26.6326 118.974 25.1292C128.728 23.6258 120.352 30.7142 120.352 30.7142C120.352 30.7142 58.2604 143.475 58.2604 158.298C58.2604 173.121 53.3203 151.856 53.3203 151.856L53.3273 151.849Z" fill="#E1FDC0"/>
</g>
<path d="M60.3134 86.4454L61.9999 95.0372L70.594 96.7232C71.6621 96.9339 71.6621 98.4584 70.594 98.6692L61.9999 100.355L60.3134 108.947C60.1026 110.015 58.5777 110.015 58.3669 108.947L56.6804 100.355L48.0862 98.6692C47.0181 98.4584 47.0181 96.9339 48.0862 96.7232L56.6804 95.0372L58.3669 86.4454C58.5777 85.3776 60.1026 85.3776 60.3134 86.4454Z" fill="#694EC8"/>
<path d="M123.381 104.309L124.765 111.741L132.2 113.125C133.057 113.287 133.057 114.509 132.2 114.671L124.765 116.055L123.381 123.487C123.219 124.345 121.997 124.345 121.835 123.487L120.451 116.055L113.016 114.671C112.159 114.509 112.159 113.287 113.016 113.125L120.451 111.741L121.835 104.309C121.997 103.452 123.219 103.452 123.381 104.309Z" fill="#BBB5F4"/>
<path d="M130.023 306.712C130.023 306.712 112.406 303.761 123.038 290.708C133.67 277.656 101.767 272.345 99.3499 255.913C96.9326 239.481 105.147 229.814 104.185 226.435C103.222 223.056 87.2633 216.769 92.5828 209.519C97.9023 202.269 128.351 202.269 127.388 212.42C126.425 222.572 111.226 231.915 117.557 234.325C123.888 236.734 145.216 226.323 151.505 238.406C157.794 250.489 163.149 267.399 161.174 277.066C159.2 286.732 148.659 283.936 145.757 284.421C142.855 284.906 152.812 288.285 155.328 296.504C157.843 304.724 143.438 312.985 130.023 306.705V306.712Z" fill="#694EC8"/>
<path d="M106.145 47.7366L107.529 55.1692L114.964 56.5531C115.821 56.7147 115.821 57.9371 114.964 58.0986L107.529 59.4826L106.145 66.9152C105.983 67.7723 104.76 67.7723 104.599 66.9152L103.214 59.4826L95.7797 58.0986C94.9224 57.9371 94.9224 56.7147 95.7797 56.5531L103.214 55.1692L104.599 47.7366C104.76 46.8795 105.983 46.8795 106.145 47.7366Z" fill="#9B8DE2"/>
</g>
<defs>
<clipPath id="clip0_1079_6399">
<rect width="261" height="350" fill="white"/>
</clipPath>
</defs>
</svg>
