<svg width="241" height="294" viewBox="0 0 241 294" fill="none" xmlns="http://www.w3.org/2000/svg">
<path d="M146.579 268.594C145.121 268.859 143.588 269.023 142.005 269.068C132.45 269.349 76.0686 268.26 75.5283 268.258C65.0854 268.029 51.8802 262.764 48.2897 238.938C46.0473 224.015 34.9226 138.627 34.1232 130.865C31.8736 109.022 47.3562 105.081 50.4924 104.511C51.3315 104.358 52.2219 104.254 53.1335 104.188L53.4849 104.167L53.8389 104.16C75.2031 103.732 145.65 102.464 155.317 103.819C170.055 105.866 171.339 123.803 171.965 132.41C172.606 141.257 172.661 153.522 172.121 168.85C171.195 195.581 168.765 224.826 167.735 237.302C167.503 240.014 167.36 241.809 167.32 242.445C166.225 262.855 152.442 267.543 146.568 268.61L146.579 268.594Z" fill="white"/>
<path d="M54.1411 118.178C54.1411 118.178 144.105 116.405 153.436 117.707C164.747 119.277 153.682 235.816 153.365 241.655C152.972 249.034 150.207 254.775 141.571 255.031C132.936 255.287 80.0987 254.311 75.819 254.218C69.3844 254.074 64.2409 250.869 62.1341 236.85C60.0273 222.831 48.8312 137.128 48.0469 129.448C47.1064 120.284 50.4556 118.463 54.1436 118.192L54.1411 118.178Z" fill="white"/>
<mask id="mask0_1050_4504" style="mask-type:luminance" maskUnits="userSpaceOnUse" x="47" y="117" width="112" height="139">
<path d="M54.1411 118.178C54.1411 118.178 144.105 116.405 153.436 117.707C164.747 119.277 153.682 235.816 153.365 241.655C152.972 249.034 150.207 254.775 141.571 255.031C132.936 255.287 80.0987 254.311 75.819 254.218C69.3844 254.074 64.2409 250.869 62.1341 236.85C60.0273 222.831 48.8312 137.128 48.0469 129.448C47.1064 120.284 50.4556 118.463 54.1436 118.192L54.1411 118.178Z" fill="white"/>
</mask>
<g mask="url(#mask0_1050_4504)">
<path d="M144.976 140.668C119.171 145.357 74.5895 145.165 56.1891 141.728C50.9233 140.744 34.8744 137.737 33.313 123.904C32.3531 115.415 37.8469 107.722 48.0028 103.322L50.2682 102.339L52.7281 102.192C52.9807 102.175 78.3037 100.699 103.946 100.279C119.205 100.033 131.657 100.211 140.969 100.789C156.536 101.771 165.875 103.742 170.632 111.313C173.672 116.156 173.823 122.067 171.033 127.127C167.251 133.994 159.46 138.036 144.989 140.666L144.976 140.668Z" fill="white"/>
<path d="M76.9623 219.611C70.3323 220.816 67.1306 226.265 66.6095 228.715C68.017 221.993 67.4205 177.812 64.0889 159.476C63.6747 157.196 63.389 156.406 63.3815 156.365C63.6909 157.208 64.3345 158.247 65.2994 159.256L76.166 157.282L72.2168 135.547C77.8152 134.53 85.6806 136.684 89.3951 146.1C90.2633 148.297 90.9592 150.954 91.5994 154.477C93.7962 166.567 94.9007 187.192 95.1899 202.469C95.3597 211.301 95.3037 219.048 95 224.884C94.6099 232.434 93.9644 245.069 81.9698 247.248L76.9486 219.614L76.9623 219.611Z" fill="white"/>
<path d="M104.084 222.248C97.4544 223.453 94.2527 228.902 93.7316 231.352C95.139 224.63 94.5426 180.448 91.211 162.113C90.7968 159.833 90.5111 159.043 90.5035 159.001C90.813 159.844 91.4565 160.884 92.4215 161.893L103.288 159.919L99.3389 138.184C104.937 137.167 112.803 139.32 116.517 148.737C117.385 150.934 118.081 153.591 118.721 157.114C120.918 169.204 122.023 189.828 122.312 205.105C122.482 213.938 122.426 221.684 122.122 227.52C121.732 235.07 121.086 247.705 109.092 249.885L104.071 222.251L104.084 222.248Z" fill="white"/>
<path d="M132.719 224.924C126.089 226.129 122.887 231.578 122.366 234.027C123.774 227.306 123.177 183.124 119.846 164.789C119.432 162.509 119.146 161.719 119.138 161.677C119.448 162.52 120.091 163.559 121.056 164.569L131.923 162.594L127.974 140.86C133.572 139.843 141.437 141.996 145.152 151.413C146.02 153.61 146.716 156.267 147.356 159.79C149.553 171.88 150.658 192.504 150.947 207.781C151.117 216.614 151.061 224.36 150.757 230.196C150.367 237.746 149.721 250.381 137.727 252.561L132.705 224.926L132.719 224.924Z" fill="white"/>
</g>
<path d="M146.644 269.11C145.186 269.375 143.623 269.531 142.026 269.578C132.488 269.87 76.0761 268.773 75.5333 268.757C68.2458 268.611 62.136 266.11 57.3979 261.305C52.7912 256.675 49.764 250.103 48.1496 241.218C48.0241 240.527 47.886 239.767 47.7729 238.989C45.533 224.08 34.4033 138.664 33.6039 130.902C32.9026 123.993 33.7918 118.407 36.345 113.847C37.2132 112.291 38.2765 110.87 39.4875 109.636L39.1303 104.777L53.3842 103.614L67.0179 102.636L67.0634 103.355C88.6653 102.984 129.577 102.373 146.786 102.772C151.123 102.869 153.608 103.017 155.384 103.251C158.925 103.735 162.178 105.37 164.781 107.966C166.321 109.485 167.572 111.284 168.616 113.435C169.809 115.931 170.666 118.772 171.324 122.392C173.076 132.037 173.456 148.439 172.522 172.545C171.926 187.64 170.809 205.656 169.184 226.12C168.828 230.652 168.501 234.48 168.271 237.362C168.048 240.043 167.903 241.825 167.859 242.447C167.52 248.632 166.057 253.722 163.394 257.988C159.727 263.85 153.811 267.808 146.713 269.098L146.658 269.108L146.644 269.11ZM77.5934 239.665C87.1621 239.853 127.206 240.57 138.9 240.486C138.959 239.562 139.12 237.634 139.35 234.909C139.584 232.055 139.903 228.257 140.253 223.769C141.23 211.473 141.996 200.515 142.593 190.273C144.584 156.269 144.116 139.768 143.346 131.858C141.723 131.839 139.787 131.819 137.481 131.796C130.356 131.763 120.898 131.797 109.353 131.911C91.7365 132.086 73.3474 132.387 63.0374 132.576C65.4556 152.22 74.6025 222.11 76.487 234.67C76.5586 235.143 76.6277 235.601 76.7055 236.029C77.0093 237.701 77.3352 238.87 77.5934 239.665Z" fill="white"/>
<path d="M177.076 115.495C174.091 116.037 166.14 117.482 101.147 109.352C37.4484 101.386 34.1041 99.4813 32.0936 98.348C28.877 96.5202 24.8874 92.7062 24.1618 84.9592C23.8027 81.0279 25.1324 55.5797 34.1131 47.9959C36.1717 46.2659 38.6621 45.114 41.5232 44.5941C46.2 43.7443 56.1769 44.6149 71.2212 47.1767C77.5407 38.0068 89.7048 25.8909 111.301 21.9668C114.409 21.402 117.666 21.0244 120.985 20.8352C152.247 19.1228 167.203 41.4549 172.587 59.1176C175.276 59.6852 177.546 60.0577 178.601 60.08C185.816 59.5114 194.063 64.079 196.411 75.6705C199.015 88.5144 195.395 109.883 179.331 114.928C178.606 115.16 177.871 115.336 177.073 115.481L177.076 115.495Z" fill="white"/>
<path d="M179.711 74.0805C174.585 74.5695 160.846 70.6713 160.846 70.6713C160.846 70.6713 156.17 32.9689 121.756 34.8543C87.3427 36.7397 78.6009 62.764 78.6009 62.764C78.6009 62.764 45.7502 56.5151 43.1128 58.7357C40.4755 60.9562 36.0629 84.4526 38.9643 86.1092C41.8656 87.7658 165.265 104.61 175.133 101.518C184.999 98.412 184.82 73.5803 179.708 74.0667L179.711 74.0805ZM146.206 69.8631C145.346 70.7615 100.275 65.7625 91.2549 64.761C90.5295 64.6787 90.14 63.8645 90.5535 63.247C93.9805 58.0997 103.576 42.3255 122.435 43.9086C142.321 45.5907 147.177 68.8731 146.206 69.8631Z" fill="white"/>
<mask id="mask1_1050_4504" style="mask-type:luminance" maskUnits="userSpaceOnUse" x="38" y="34" width="146" height="68">
<path d="M179.711 74.0805C174.585 74.5695 160.846 70.6713 160.846 70.6713C160.846 70.6713 156.17 32.9689 121.756 34.8543C87.3427 36.7397 78.6009 62.764 78.6009 62.764C78.6009 62.764 45.7502 56.5151 43.1128 58.7357C40.4755 60.9562 36.0629 84.4526 38.9643 86.1092C41.8656 87.7658 165.265 104.61 175.133 101.518C184.999 98.412 184.82 73.5803 179.708 74.0667L179.711 74.0805ZM146.206 69.8631C145.346 70.7615 100.275 65.7625 91.2549 64.761C90.5295 64.6787 90.14 63.8645 90.5535 63.247C93.9805 58.0997 103.576 42.3255 122.435 43.9086C142.321 45.5907 147.177 68.8731 146.206 69.8631Z" fill="white"/>
</mask>
<g mask="url(#mask1_1050_4504)">
<path d="M177.807 117.56C156.307 121.467 55.8088 107.727 35.8919 104.937L34.0996 104.692L32.422 103.983C24.0229 100.457 19.0597 93.8652 19.1559 86.34C19.2155 81.9758 21.0585 73.9761 32.7776 69.4203C33.9178 68.9704 35.1495 68.6325 36.525 68.3825C51.3531 65.6882 107.002 72.6761 113.288 73.4893C178.768 81.8738 184.45 87.8067 187.838 91.359C191.889 95.59 193.285 101.317 191.571 106.667C190.501 110.001 187.298 115.836 177.807 117.56Z" fill="white"/>
</g>
<path d="M177.156 116.009C174.652 116.464 171.477 116.584 166.557 116.407C162.939 116.28 158.295 115.982 152.768 115.516C143.059 114.711 130.616 113.403 115.761 111.649C87.8081 108.35 59.1922 104.372 45.3625 102.16C39.2738 101.183 37.2024 100.731 36.0854 100.449L35.9216 100.407C35.2061 100.223 33.7864 99.839 32.1474 98.9521L31.7996 98.7584C29.0534 97.1735 26.8557 94.7752 25.438 91.8213C24.7366 90.3074 24.2491 88.7973 23.9428 87.1116C23.6591 85.5503 22.8368 80.9467 24.749 69.8086C25.403 65.9787 26.8439 58.8943 29.0393 54.0849C29.8585 52.3375 31.1725 49.8721 33.6385 47.7254L33.9947 47.4181C37.0784 44.9166 40.262 44.2953 41.3074 44.1053L41.5 44.0704C44.3611 43.5505 47.8053 43.5812 53.3935 44.1502C56.7805 44.4911 60.9317 45.0499 65.7709 45.7978C67.5545 46.0732 69.2968 46.3561 70.9378 46.6288C72.051 45.0135 73.363 43.3192 74.8539 41.5925C81.2084 34.2575 92.694 24.8198 111.195 21.4581C114.345 20.8858 117.629 20.5032 120.95 20.3278C138.69 19.3454 153.975 26.5166 164.013 40.5502C168.467 46.7634 171.215 53.2865 172.902 58.6608C176.152 59.3406 177.994 59.5483 178.595 59.5676C182.151 59.2782 185.764 60.2347 188.785 62.2406C190.82 63.5837 192.558 65.4089 193.93 67.6431C195.439 70.0809 196.448 72.895 197.069 76.2363C197.867 80.6301 197.896 85.7919 197.17 90.7909C196.257 96.9515 194.34 102.196 191.45 106.389C188.392 110.827 184.258 113.962 179.527 115.45C178.788 115.684 178.025 115.865 177.199 116.015L177.172 116.02L177.156 116.009ZM100.15 80.4012C129.399 84.1074 153.574 86.6372 165.714 87.2146C166.158 87.2338 166.561 87.2606 166.947 87.276L166.927 87.1655C166.381 87.0507 165.818 86.9246 165.241 86.801C160.648 85.7657 156.843 84.6873 156.799 84.6809L151.913 83.285C151.795 83.3351 150.696 83.7775 150.696 83.7775L149.093 84.1829L148.584 84.2754C147.208 84.5253 145.976 84.5493 144.964 84.5334C144.254 84.534 143.424 84.4993 142.434 84.4507C140.842 84.3689 138.769 84.2175 136.243 84.0055C132.017 83.6601 126.335 83.1225 119.356 82.4066C112.654 81.7261 105.741 80.9839 100.162 80.3848L100.15 80.4012ZM57.3674 74.5439C63.3422 75.4423 70.3414 76.4257 77.8471 77.4598L75.8896 77.0875C75.6683 77.0421 74.7577 76.8793 73.3743 76.6168C71.742 76.3139 69.4669 75.9138 66.8578 75.4743C61.7271 74.6082 57.1994 73.9322 53.5647 73.4793C53.5373 73.6413 53.5074 73.7894 53.48 73.9514C54.6945 74.1447 56.0078 74.3342 57.3674 74.5439Z" fill="white"/>
<path d="M50.5746 119.355C50.5746 119.355 140.539 117.581 149.869 118.883C161.181 120.453 150.116 236.993 149.798 242.831C149.405 250.21 146.64 255.951 138.005 256.207C129.37 256.463 76.5323 255.487 72.2526 255.394C65.818 255.25 60.6745 252.045 58.5677 238.026C56.4609 224.007 45.2648 138.304 44.4805 130.625C43.54 121.461 46.8892 119.639 50.5772 119.368L50.5746 119.355Z" fill="#84297B"/>
<mask id="mask2_1050_4504" style="mask-type:luminance" maskUnits="userSpaceOnUse" x="44" y="118" width="111" height="139">
<path d="M50.5746 119.355C50.5746 119.355 140.539 117.581 149.869 118.883C161.181 120.453 150.116 236.993 149.798 242.831C149.405 250.21 146.64 255.951 138.005 256.207C129.37 256.463 76.5323 255.487 72.2526 255.394C65.818 255.25 60.6745 252.045 58.5677 238.026C56.4609 224.007 45.2648 138.304 44.4805 130.625C43.54 121.461 46.8892 119.639 50.5772 119.368L50.5746 119.355Z" fill="white"/>
</mask>
<g mask="url(#mask2_1050_4504)">
<path d="M49.9906 117.391C49.9906 117.391 32.6707 124.906 55.1612 129.112C77.6516 133.318 149.342 132.167 155.218 121.494C161.093 110.82 49.9906 117.391 49.9906 117.391Z" fill="#F5BEF0"/>
<path d="M70.8548 150.654C70.8548 150.654 70.6924 226.631 75.3461 234.178C79.9998 241.726 77.5378 146.456 70.8548 150.654Z" fill="#F5BEF0"/>
<path d="M97.9788 153.304C97.9788 153.304 97.8164 229.282 102.47 236.829C107.124 244.376 104.662 149.107 97.9788 153.304Z" fill="#F5BEF0"/>
<path d="M126.625 155.964C126.625 155.964 126.463 231.941 131.117 239.489C135.77 247.036 133.308 151.766 126.625 155.964Z" fill="#F5BEF0"/>
</g>
<path d="M50.5746 119.355C50.5746 119.355 140.539 117.581 149.869 118.883C161.181 120.453 150.116 236.993 149.798 242.831C149.405 250.21 146.64 255.951 138.005 256.207C129.37 256.463 76.5323 255.487 72.2526 255.394C65.818 255.25 60.6745 252.045 58.5677 238.026C56.4609 224.007 45.2648 138.304 44.4805 130.625C43.54 121.461 46.8892 119.639 50.5772 119.368L50.5746 119.355Z" stroke="#84297B" stroke-width="0.75" stroke-miterlimit="10"/>
<path d="M176.147 75.2707C171.021 75.7596 157.283 71.8614 157.283 71.8614C157.283 71.8614 152.606 34.159 118.193 36.0444C83.7792 37.9298 75.0374 63.9541 75.0374 63.9541C75.0374 63.9541 42.1867 57.7052 39.5493 59.9258C36.912 62.1463 32.4995 85.6427 35.4008 87.2993C38.3021 88.956 161.702 105.8 171.57 102.708C181.435 99.6021 181.257 74.7704 176.145 75.2568L176.147 75.2707ZM142.643 71.0532C141.783 71.9517 96.7116 66.9527 87.6914 65.9511C86.966 65.8688 86.5765 65.0547 86.99 64.4371C90.417 59.2898 100.012 43.5156 118.872 45.0988C138.758 46.7808 143.614 70.0632 142.643 71.0532Z" fill="#84297B"/>
<mask id="mask3_1050_4504" style="mask-type:luminance" maskUnits="userSpaceOnUse" x="34" y="35" width="146" height="69">
<path d="M176.147 75.2707C171.021 75.7596 157.283 71.8614 157.283 71.8614C157.283 71.8614 152.606 34.159 118.193 36.0444C83.7792 37.9298 75.0374 63.9541 75.0374 63.9541C75.0374 63.9541 42.1867 57.7052 39.5493 59.9258C36.912 62.1463 32.4995 85.6427 35.4008 87.2993C38.3021 88.956 161.702 105.8 171.57 102.708C181.435 99.6021 181.257 74.7704 176.145 75.2568L176.147 75.2707ZM142.643 71.0532C141.783 71.9517 96.7116 66.9527 87.6914 65.9511C86.966 65.8688 86.5765 65.0547 86.99 64.4371C90.417 59.2898 100.012 43.5156 118.872 45.0988C138.758 46.7808 143.614 70.0632 142.643 71.0532Z" fill="white"/>
</mask>
<g mask="url(#mask3_1050_4504)">
<path d="M34.2351 92.2214C34.2351 92.2214 23.7143 87.8099 34.2656 83.7089C44.8169 79.6079 166.032 93.737 174.205 102.272C184.781 113.325 34.2351 92.2214 34.2351 92.2214Z" fill="#F5BEF0"/>
</g>
<path d="M176.147 75.2707C171.021 75.7596 157.283 71.8614 157.283 71.8614C157.283 71.8614 152.606 34.159 118.193 36.0444C83.7792 37.9298 75.0374 63.9541 75.0374 63.9541C75.0374 63.9541 42.1867 57.7052 39.5493 59.9258C36.912 62.1463 32.4995 85.6427 35.4008 87.2993C38.3021 88.956 161.702 105.8 171.57 102.708C181.435 99.6021 181.257 74.7704 176.145 75.2568L176.147 75.2707ZM142.643 71.0532C141.783 71.9517 96.7116 66.9527 87.6914 65.9511C86.966 65.8688 86.5765 65.0547 86.99 64.4371C90.417 59.2898 100.012 43.5156 118.872 45.0988C138.758 46.7808 143.614 70.0632 142.643 71.0532Z" stroke="#84297B" stroke-width="0.75" stroke-miterlimit="10"/>
</svg>
