<svg width="219" height="273" viewBox="0 0 219 273" fill="none" xmlns="http://www.w3.org/2000/svg">
<g clip-path="url(#clip0_941_5005)">
<path d="M130.492 93.6409C124.265 93.6409 118.594 90.5545 115.338 85.3841C111.049 78.6068 111.526 69.5545 116.752 58.4818C116.879 58.1954 117.022 57.925 117.18 57.6386C117.466 57.1295 124.09 45.0068 131.508 32.5977C146.821 7 152.46 0.906818 161.705 0.0636364C162.181 0.0159091 162.721 0 163.214 0C171.887 0 178.924 6.63409 179.591 15.4477C179.845 18.7091 180.353 25.5023 163.897 56.8591C146.964 89.1227 140.88 92.2886 133.526 93.4182C132.509 93.5773 131.492 93.6568 130.492 93.6568V93.6409Z" fill="white"/>
<path d="M157.162 93.6409C148.394 93.6409 141.277 86.5136 141.277 77.7318C141.277 70.0159 146.773 63.5727 154.064 62.125C157.368 60.3273 163.849 54.8545 167.519 51.1C169.091 43.9727 175.445 38.6432 183.022 38.6432C192.426 38.6432 199.796 45.9296 199.796 55.2364C199.796 60.2318 198.509 66.675 183.117 79.975C167.296 93.6409 160.196 93.6409 157.162 93.6409Z" fill="white"/>
<path d="M158.496 119.732C156.082 119.732 153.794 119.334 151.697 118.555C143.104 115.325 139.721 108.198 139.435 102.614C139.006 94.4364 144.009 87.3091 153.524 82.5523C153.858 82.3773 154.207 82.2182 154.557 82.075C170.775 75.3614 192.076 67.375 201.432 67.375C204.116 67.375 206.61 67.8523 208.866 68.8068C216.189 71.8773 220.223 79.45 218.667 87.1977C217.158 94.7068 212.694 99.7659 190.233 109.852C175.62 116.407 164.929 119.748 158.496 119.748V119.732Z" fill="white"/>
<path d="M115.671 273C97.6104 273 83.8862 262.07 67.9857 249.423C63.3633 245.748 58.5821 241.93 53.229 237.984C18.2672 212.148 46.0333 156.45 49.3214 150.182C50.7669 147.461 58.5662 134.098 73.3706 134.098C73.3706 134.098 74.1172 134.098 74.1966 134.098C76.6428 132.443 77.9612 126.175 79.1526 120.623C81.2176 110.855 85.0775 92.6864 104.091 91.1114C104.981 91.0318 105.854 91 106.728 91C113.543 91 126.075 93.3545 133.351 109.184C136.655 116.375 138.084 124.632 139.339 131.902C139.673 133.843 140.006 135.72 140.34 137.439C142.246 137.55 144.438 137.55 145.788 137.55H146.471C149.521 137.55 152.047 137.566 154.541 137.852C173.348 140 183.053 150.309 187.866 158.582C205.705 189.175 184.785 239.67 183.879 241.802C175.063 262.707 137.655 270.248 121.993 272.523C119.881 272.825 117.752 272.984 115.655 272.984L115.671 273Z" fill="white"/>
<path d="M53.2767 250.807C49.9092 250.807 46.1128 250.345 41.7605 249.614C35.4067 248.548 28.0362 246.83 22.5243 245.111C17.9496 243.695 11.5004 239.989 6.70331 230.395C-1.73138 213.532 -2.25557 185.516 5.46431 163.784C15.3763 135.895 39.7431 127.4 52.5619 126.78L52.689 129.452C55.5323 128.005 59.0587 127.416 63.3475 128.498C70.9245 130.407 76.0552 137.709 75.3404 145.52C75.0227 148.957 73.6407 152.043 71.5598 154.461C70.2891 156.959 67.1281 163.593 59.9482 180.489C50.9417 201.664 60.6789 213.134 66.4927 219.991C69.3519 223.364 73.2754 227.993 72.6718 235.136C72.2588 240.164 69.5902 244.682 65.3649 247.545C61.8862 249.9 57.9786 250.807 53.2609 250.807H53.2767Z" fill="white"/>
<path d="M61.3782 157.945C61.3782 157.945 35.6452 207.073 60.6475 225.559C85.6497 244.046 99.2628 259.843 117.705 257.17C136.147 254.498 162.626 246.957 167.233 236.011C171.839 225.066 194.427 159.059 150.729 154.048C143.199 153.189 126.95 155.925 124.265 147.239C119.897 133.127 121.104 105.907 103.377 107.355C88.5725 108.564 97.309 139.22 79.3436 148.702C76.2778 150.309 76.8656 150.516 71.5443 150.373C65.4605 150.214 61.3782 157.945 61.3782 157.945Z" fill="#694EC8"/>
<mask id="mask0_941_5005" style="mask-type:luminance" maskUnits="userSpaceOnUse" x="49" y="107" width="129" height="151">
<path d="M61.3782 157.945C61.3782 157.945 35.6452 207.073 60.6475 225.559C85.6497 244.046 99.2628 259.843 117.705 257.17C136.147 254.498 162.626 246.957 167.233 236.011C171.839 225.066 194.427 159.059 150.729 154.048C143.199 153.189 126.95 155.925 124.265 147.239C119.897 133.127 121.104 105.907 103.377 107.355C88.5725 108.564 97.309 139.22 79.3436 148.702C76.2778 150.309 76.8656 150.516 71.5443 150.373C65.4605 150.214 61.3782 157.945 61.3782 157.945Z" fill="white"/>
</mask>
<g mask="url(#mask0_941_5005)">
<path d="M111.335 173.902C105.506 177.736 98.0401 233.084 102.774 243.664C107.507 254.243 109.699 250.6 109.699 250.6C109.699 250.6 107.142 193.868 111.335 173.902Z" fill="#E5DEFF"/>
</g>
<path d="M51.2914 142.673C51.2914 142.673 27.3693 143.834 18.3945 169.114C9.41976 194.393 14.9952 226.752 25.1931 229.918C35.391 233.084 54.5795 236.727 54.8177 233.816C55.056 230.905 27.3852 211.686 43.3015 174.252C57.8676 140 57.5022 144.073 57.5022 144.073" fill="#E5DEFF"/>
<path d="M131.111 65.2751C131.111 65.2751 124.805 78.6546 131.111 77.6841C137.417 76.7137 168.472 15.4319 163.15 15.9091C157.829 16.3864 131.111 65.2751 131.111 65.2751Z" fill="#694EC8"/>
<path d="M163.691 66.2773C158.496 70.6523 150.729 76.7295 156.797 77.7C162.864 78.6705 190.313 53.375 182.53 54.6C174.746 55.825 163.675 66.2773 163.675 66.2773H163.691Z" fill="#694EC8"/>
<path d="M160.624 96.775C160.624 96.775 151.348 101.42 157.273 103.648C163.197 105.875 207.642 85.5272 202.718 83.475C197.794 81.4227 160.608 96.775 160.608 96.775H160.624Z" fill="#694EC8"/>
</g>
<defs>
<clipPath id="clip0_941_5005">
<rect width="219" height="273" fill="white"/>
</clipPath>
</defs>
</svg>
