<svg width="314" height="350" viewBox="0 0 314 350" fill="none" xmlns="http://www.w3.org/2000/svg">
<g clip-path="url(#clip0_1057_4963)">
<path d="M185.267 180.832C174.176 180.832 167.395 176.275 163.648 172.464C159.802 168.537 155.26 161.362 155.492 149.497C155.575 145.553 155.724 137.716 155.591 131.17C151.629 131.8 147.186 132.281 142.627 132.281C120.875 132.281 106.22 120.383 103.435 100.449C101.346 85.5686 106.651 75.8583 111.459 70.3238C117.145 63.7785 124.672 60.0833 131.967 58.0452C129.811 48.1692 128.999 37.1996 132.679 28.9144C135.365 22.8828 140.156 18.3591 146.174 16.2049C157.199 12.2446 218.457 0.015625 251.83 0.015625C259.689 0.015625 265.856 0.661871 270.697 2.00407C286.762 6.42837 288.37 18.5579 288.486 22.1702C288.635 26.7437 289.713 33.5044 290.774 40.0331C293.94 59.6856 296.692 76.6372 284.557 85.9663C281.208 88.5347 277.328 90.258 273.582 91.9316C271.824 92.7104 268.84 94.0361 266.652 95.312C267.746 95.4446 269.056 95.544 270.581 95.544C272.786 95.544 275.173 95.3451 277.295 94.9972C278.456 94.7983 279.633 94.6989 280.81 94.6989C286.911 94.6989 292.498 97.3004 296.543 102.04C304.153 110.938 305.81 129.265 301.483 156.49L299.643 168.073L288.104 170.194C287.624 170.276 276.251 172.348 264.894 172.348C251.731 172.348 242.762 169.663 236.677 163.88C228.537 156.142 225.238 149.066 223.282 144.708C223.05 144.692 222.801 144.659 222.536 144.642C221.226 147.21 220.264 153.574 220.546 158.412L221.193 169.465L211.229 174.369C208.991 175.446 197.253 180.848 185.267 180.848V180.832Z" fill="white"/>
<path d="M234.358 349.999C232.169 349.999 229.865 349.883 227.511 349.635C213.734 348.21 203.372 339.46 199.062 325.674C197.188 319.659 196.625 313.478 196.475 308.01C190.292 308.126 182.649 308.474 173.68 309.037C173.166 309.07 172.668 309.087 172.154 309.087C162.008 309.087 152.973 302.658 149.657 293.113C145.198 280.271 143.258 269.782 143.871 261.944C144.932 248.423 151.713 241.496 159.008 237.884L148.878 238.48L145.032 225.937C142.164 216.376 133.825 183.815 147.104 165.968C152.625 158.561 160.997 154.469 170.662 154.469H171.375C174.873 154.551 178.056 154.585 180.925 154.585C184.588 154.585 187.457 154.518 189.662 154.419C189.86 150.177 190.573 145.272 192.579 140.4C195.398 133.573 202.974 121.858 222.089 120.218C222.968 120.135 223.83 120.102 224.676 120.102C244.089 120.102 252.594 137.418 256.291 147.492C262.243 146.598 267.664 146.15 272.455 146.15C293.593 146.15 301.418 155.529 304.237 163.383C307.503 172.447 311.167 202.026 312.824 225.373C316.787 281.365 309.592 291.953 306.508 296.477C302.529 302.343 296.428 305.823 289.797 306.021C286.299 306.137 283.165 306.187 280.247 306.187C278.689 306.187 277.263 306.187 275.92 306.137C275.605 316.328 273.45 328.889 264.365 338.383C259.292 343.686 249.975 349.999 234.358 349.999Z" fill="white"/>
<path d="M100.02 313.511C27.7862 313.511 18.2867 303.304 14.2249 298.946C10.3786 294.803 8.47208 289.534 8.85339 284.099C9.18497 279.509 8.82024 273.643 8.47208 267.976C7.51052 252.367 6.5158 236.227 19.5466 228.174C23.1442 225.953 27.1728 224.644 31.0854 223.368C32.909 222.772 36.0093 221.761 38.3137 220.717C36.2579 220.253 33.5059 219.872 30.1404 219.872C29.2949 219.872 28.466 219.905 27.6868 219.938C27.2226 219.971 26.7749 219.988 26.3439 219.988C19.8782 219.988 13.9099 217.038 9.94759 211.885C7.22868 208.339 -1.04407 197.585 9.96416 156.291L12.9815 144.974L24.6694 144.046C24.8518 144.046 29.3281 143.681 35.2632 143.681C55.5224 143.681 68.205 147.476 75.1681 155.612C82.4793 164.146 85.0158 171.52 86.5245 176.06C86.74 176.11 86.9887 176.143 87.2539 176.192C88.8123 173.773 90.437 167.543 90.6526 162.688L91.1997 150.624L102.871 147.36C104.33 146.962 117.493 143.482 130.872 143.482C144.251 143.482 154.729 147.211 161.228 154.551C165.008 158.827 169.235 166.316 167.826 177.651C166.202 190.841 166.45 201.131 167.113 207.527C192.545 208.803 199.326 223.882 201.1 233.029C202.625 240.966 200.752 248.605 195.844 254.57C190.423 261.132 181.703 265.192 169.865 266.667C169.783 272.036 170.064 276.708 170.711 279.161C175.22 283.867 176.795 290.478 174.706 296.709C170.446 309.385 155.89 310.694 141.814 311.954C130.325 312.981 115.487 313.544 100.036 313.544L100.02 313.511Z" fill="white"/>
<path d="M88.448 205.323C79.8105 205.323 73.0132 201.363 70.112 199.672L69.7141 199.44C59.5513 193.773 56.1693 182.008 53.5665 172.298C49.1565 171.553 41.4474 170.84 30.4889 170.84C29.5274 170.84 28.6984 170.84 28.0187 170.84C27.0406 171.006 26.0459 171.089 25.0346 171.089H25.018C7.79275 171.072 4.59307 151.038 3.05125 141.411C1.34365 130.64 0.266033 116.854 0.0505101 102.636C-0.281063 81.5255 1.32707 61.9559 4.57649 47.5727C11.5229 16.8347 26.2945 9.94137 37.4686 9.57682C43.8514 9.3614 60.629 8.88086 78.8158 8.88086C138.897 8.88086 147.75 13.6697 153.668 20.447C157.183 24.457 158.791 29.7264 158.095 34.9295C157.946 37.0174 159.421 45.1369 164.08 57.631C166.185 63.2981 165.39 69.628 161.941 74.5825C158.493 79.537 152.84 82.5032 146.805 82.5032C146.241 82.5032 145.678 82.47 145.097 82.4203C143.87 82.3043 142.627 82.2546 141.433 82.2546C137.554 82.2546 135.399 82.8511 134.669 83.1825C130.044 88.3359 131.735 99.7364 133.476 104.509C134.785 104.956 137.388 105.519 141.549 105.519C148.479 105.519 154.796 104.028 156.619 103.349C158.742 102.553 160.963 102.156 163.185 102.156C170.115 102.156 178.653 106.215 181.852 117.599C182.83 121.096 183.328 125.354 183.328 130.292C183.328 150.707 176.564 174.535 157.482 174.535C155.277 174.535 153.072 174.171 150.966 173.425C148.015 172.53 136.51 171.47 119.666 170.939C118.157 179.225 115.819 185.869 112.603 191.072C106.933 200.269 98.3454 205.323 88.4314 205.323H88.448Z" fill="white"/>
<path d="M154.432 70.2077C154.432 70.2077 139.726 34.2334 152.409 29.6765C165.092 25.1196 272.024 4.34037 272.538 20.5628C273.052 36.7852 281.656 65.6508 275.075 70.7214C268.493 75.7919 248.715 78.8243 248.217 94.5331C247.72 110.242 268.493 111.253 280.662 109.231C292.83 107.209 285.735 151.784 285.735 151.784C285.735 151.784 256.523 157.153 248.731 149.762C233.86 135.628 242.647 126.961 223.382 125.951C202.41 124.84 204.632 157.368 204.632 157.368C204.632 157.368 172.187 173.077 172.701 147.741C173.215 122.404 172.701 111.269 168.142 110.258C163.583 109.248 124.557 124.956 120.495 96.0575C116.433 67.1588 154.448 70.2243 154.448 70.2243L154.432 70.2077Z" fill="#694EC8"/>
<path d="M242.646 154.999C244.337 160.235 249.575 163.467 254.997 162.489C267.066 160.302 286.148 158.33 289.232 166.88C293.791 179.54 306.092 286.85 289.862 287.364C273.631 287.877 268.89 286.999 260.584 286.601C255.892 286.369 272.156 335.467 229.797 331.06C206.04 328.591 216.882 290.495 212.307 289.833C203.57 288.573 181.421 289.882 173.198 290.396C169.965 290.595 166.964 288.64 165.903 285.574C163.681 279.178 160.415 268.308 160.979 261.133C162.753 238.613 191.898 257.056 192.91 237.802C194.02 216.84 161.476 219.06 161.476 219.06C161.476 219.06 146.274 168.421 171.623 168.935C196.971 169.449 205.841 168.305 206.852 163.748C207.863 159.192 201.564 136.54 224.077 134.618C235.019 133.673 239.711 145.985 242.612 154.999H242.646Z" fill="#6FD59B"/>
<path d="M154.979 248.472C154.979 248.472 150.669 281.911 159.041 288.241C169.784 296.377 24.8199 299.36 25.997 283.171C27.1575 266.998 21.786 244.529 28.8651 240.154C35.9442 235.779 55.9215 234.802 58.027 219.226C60.1325 203.649 39.5749 200.518 27.2736 201.28C14.9722 202.042 26.6104 158.429 26.6104 158.429C26.6104 158.429 56.2199 156.092 63.1995 164.245C76.5454 179.838 66.9132 187.543 85.9621 190.526C106.719 193.773 107.846 161.213 107.846 161.213C107.846 161.213 155.095 148.337 151.995 173.491C148.895 198.645 151.58 220.137 156.007 221.612C160.433 223.087 182.284 217.751 185.434 234.023C188.584 250.295 154.996 248.456 154.996 248.456L154.979 248.472Z" fill="#E5DEFF"/>
<path d="M26.3103 152.215C26.3103 152.215 65.7178 151.121 68.2544 159.059C70.7909 166.996 72.7803 179.738 78.3839 182.87C82.6447 185.24 102.34 198.894 105.391 153.739C105.457 152.745 106.269 151.966 107.264 151.983C115.288 152.082 148.28 152.646 156.983 155.645C167.063 159.125 171.142 113.705 163.035 116.754C154.928 119.803 130.59 123.333 121.472 113.722C117.277 109.298 109.767 83.2324 123.76 69.1476C129.794 63.0662 141.665 63.3314 147.235 63.8451C148.595 63.9776 149.622 62.6188 149.142 61.3429C146.705 54.8142 141.167 38.7906 142.262 30.6545C143.505 21.4414 61.9545 23.2973 38.6117 24.0761C7.6925 25.0869 16.5621 158.545 26.3269 152.248L26.3103 152.215Z" fill="#E1FDC0"/>
</g>
<defs>
<clipPath id="clip0_1057_4963">
<rect width="314" height="350" fill="white"/>
</clipPath>
</defs>
</svg>
